<?xml version="1.0" encoding="utf-8" standalone="no"?>
<!DOCTYPE svg PUBLIC "-//W3C//DTD SVG 1.1//EN"
  "http://www.w3.org/Graphics/SVG/1.1/DTD/svg11.dtd">
<svg xmlns:xlink="http://www.w3.org/1999/xlink" width="518.320286pt" height="345.883245pt" viewBox="0 0 518.320286 345.883245" xmlns="http://www.w3.org/2000/svg" version="1.1">
 <metadata>
  <rdf:RDF xmlns:dc="http://purl.org/dc/elements/1.1/" xmlns:cc="http://creativecommons.org/ns#" xmlns:rdf="http://www.w3.org/1999/02/22-rdf-syntax-ns#">
   <cc:Work>
    <dc:type rdf:resource="http://purl.org/dc/dcmitype/StillImage"/>
    <dc:date>2025-08-29T16:27:28.043890</dc:date>
    <dc:format>image/svg+xml</dc:format>
    <dc:creator>
     <cc:Agent>
      <dc:title>Matplotlib v3.9.4, https://matplotlib.org/</dc:title>
     </cc:Agent>
    </dc:creator>
   </cc:Work>
  </rdf:RDF>
 </metadata>
 <defs>
  <style type="text/css">*{stroke-linejoin: round; stroke-linecap: butt}</style>
 </defs>
 <g id="figure_1">
  <g id="patch_1">
   <path d="M 0 345.883245 
L 518.320286 345.883245 
L 518.320286 -0 
L 0 -0 
z
" style="fill: #ffffff"/>
  </g>
  <g id="axes_1">
   <g id="patch_2">
    <path d="M 43.957815 143.89734 
L 258.39198 143.89734 
L 258.39198 13.379307 
L 43.957815 13.379307 
z
" style="fill: #ffffff"/>
   </g>
   <g id="PolyCollection_1">
    <path d="M 229.885669 137.964702 
L 216.864236 137.964702 
L 217.556817 136.462769 
L 220.188447 134.960835 
L 222.027207 133.458901 
L 222.6102 131.956968 
L 222.685814 130.455034 
L 222.667469 128.9531 
L 222.646185 127.451167 
L 222.62289 125.949233 
L 222.581096 124.4473 
L 222.525443 122.945366 
L 222.481923 121.443432 
L 222.455045 119.941499 
L 222.41682 118.439565 
L 222.347767 116.937631 
L 222.254838 115.435698 
L 222.145983 113.933764 
L 222.025022 112.43183 
L 221.912329 110.929897 
L 221.820859 109.427963 
L 221.732848 107.92603 
L 221.61048 106.424096 
L 221.422669 104.922162 
L 221.174161 103.420229 
L 220.902987 101.918295 
L 220.637628 100.416361 
L 220.364775 98.914428 
L 220.055741 97.412494 
L 219.696032 95.91056 
L 219.288604 94.408627 
L 218.833842 92.906693 
L 218.298038 91.40476 
L 217.668439 89.902826 
L 216.966779 88.400892 
L 216.197481 86.898959 
L 215.356214 85.397025 
L 214.417196 83.895091 
L 213.355513 82.393158 
L 212.203119 80.891224 
L 211.013054 79.38929 
L 209.796918 77.887357 
L 208.530112 76.385423 
L 207.181982 74.88349 
L 205.718235 73.381556 
L 204.139203 71.879622 
L 202.552338 70.377689 
L 201.155342 68.875755 
L 200.033066 67.373821 
L 199.129095 65.871888 
L 198.480811 64.369954 
L 198.16313 62.86802 
L 198.104933 61.366087 
L 198.263645 59.864153 
L 198.76121 58.36222 
L 199.614162 56.860286 
L 200.686746 55.358352 
L 201.951471 53.856419 
L 203.474008 52.354485 
L 205.20129 50.852551 
L 206.966614 49.350618 
L 208.730511 47.848684 
L 210.589649 46.34675 
L 212.525726 44.844817 
L 214.428948 43.342883 
L 216.241649 41.84095 
L 217.882522 40.339016 
L 219.25955 38.837082 
L 220.365829 37.335149 
L 221.251523 35.833215 
L 221.943211 34.331281 
L 222.444117 32.829348 
L 222.78244 31.327414 
L 223.008895 29.82548 
L 223.161155 28.323547 
L 223.257758 26.821613 
L 223.314365 25.31968 
L 223.345262 23.817746 
L 223.360308 22.315812 
L 223.366919 20.813879 
L 223.370462 19.311945 
L 223.379444 19.311945 
L 223.379444 19.311945 
L 223.382987 20.813879 
L 223.389597 22.315812 
L 223.404644 23.817746 
L 223.43554 25.31968 
L 223.492147 26.821613 
L 223.58875 28.323547 
L 223.74101 29.82548 
L 223.967465 31.327414 
L 224.305788 32.829348 
L 224.806694 34.331281 
L 225.498383 35.833215 
L 226.384077 37.335149 
L 227.490355 38.837082 
L 228.867383 40.339016 
L 230.508256 41.84095 
L 232.320957 43.342883 
L 234.224179 44.844817 
L 236.160256 46.34675 
L 238.019394 47.848684 
L 239.783291 49.350618 
L 241.548616 50.852551 
L 243.275898 52.354485 
L 244.798434 53.856419 
L 246.063159 55.358352 
L 247.135744 56.860286 
L 247.988695 58.36222 
L 248.48626 59.864153 
L 248.644972 61.366087 
L 248.586775 62.86802 
L 248.269094 64.369954 
L 247.62081 65.871888 
L 246.716839 67.373821 
L 245.594563 68.875755 
L 244.197568 70.377689 
L 242.610702 71.879622 
L 241.03167 73.381556 
L 239.567923 74.88349 
L 238.219794 76.385423 
L 236.952988 77.887357 
L 235.736851 79.38929 
L 234.546787 80.891224 
L 233.394393 82.393158 
L 232.33271 83.895091 
L 231.393691 85.397025 
L 230.552425 86.898959 
L 229.783127 88.400892 
L 229.081466 89.902826 
L 228.451867 91.40476 
L 227.916064 92.906693 
L 227.461302 94.408627 
L 227.053873 95.91056 
L 226.694164 97.412494 
L 226.38513 98.914428 
L 226.112277 100.416361 
L 225.846919 101.918295 
L 225.575745 103.420229 
L 225.327236 104.922162 
L 225.139426 106.424096 
L 225.017058 107.92603 
L 224.929046 109.427963 
L 224.837576 110.929897 
L 224.724883 112.43183 
L 224.603922 113.933764 
L 224.495067 115.435698 
L 224.402138 116.937631 
L 224.333085 118.439565 
L 224.294861 119.941499 
L 224.267982 121.443432 
L 224.224462 122.945366 
L 224.168809 124.4473 
L 224.127015 125.949233 
L 224.103721 127.451167 
L 224.082436 128.9531 
L 224.064091 130.455034 
L 224.139705 131.956968 
L 224.722699 133.458901 
L 226.561459 134.960835 
L 229.193089 136.462769 
L 229.885669 137.964702 
z
" clip-path="url(#p757a56ea4b)" style="fill: #ff7f50"/>
   </g>
   <g id="PolyCollection_2">
    <path d="M 157.097005 137.964702 
L 145.25279 137.964702 
L 127.351536 137.705489 
L 125.904878 137.446276 
L 130.875202 137.187063 
L 135.559962 136.92785 
L 139.373759 136.668637 
L 142.457441 136.409425 
L 144.589591 136.150212 
L 146.255259 135.890999 
L 147.517025 135.631786 
L 148.402633 135.372573 
L 149.043625 135.11336 
L 149.56561 134.854147 
L 149.9123 134.594934 
L 150.16782 134.335721 
L 150.389237 134.076508 
L 150.536442 133.817295 
L 150.663827 133.558082 
L 150.761462 133.298869 
L 150.804607 133.039656 
L 150.872128 132.780443 
L 150.939438 132.52123 
L 150.969694 132.262017 
L 151.000119 132.002804 
L 151.02393 131.743591 
L 151.058003 131.484378 
L 151.066058 131.225165 
L 151.083342 130.965952 
L 151.08706 130.706739 
L 151.087671 130.447526 
L 151.109397 130.188313 
L 151.120838 129.9291 
L 151.128321 129.669888 
L 151.130826 129.410675 
L 151.140705 129.151462 
L 151.138636 128.892249 
L 151.149331 128.633036 
L 151.154953 128.373823 
L 151.159789 128.11461 
L 151.15043 127.855397 
L 151.15547 127.596184 
L 151.157673 127.336971 
L 151.160313 127.077758 
L 151.166856 126.818545 
L 151.166805 126.559332 
L 151.166992 126.300119 
L 151.170304 126.040906 
L 151.166305 125.781693 
L 151.165424 125.52248 
L 151.169114 125.263267 
L 151.169314 125.004054 
L 151.170704 124.744841 
L 151.170795 124.485628 
L 151.170276 124.226415 
L 151.170248 123.967202 
L 151.173522 123.707989 
L 151.173974 123.448776 
L 151.173357 123.189563 
L 151.172078 122.930351 
L 151.17208 122.671138 
L 151.173622 122.411925 
L 151.174678 122.152712 
L 151.17266 121.893499 
L 151.173456 121.634286 
L 151.174782 121.375073 
L 151.173834 121.11586 
L 151.173992 120.856647 
L 151.174886 120.597434 
L 151.174612 120.338221 
L 151.174215 120.079008 
L 151.173938 119.819795 
L 151.173087 119.560582 
L 151.174637 119.301369 
L 151.174897 119.042156 
L 151.174897 118.782943 
L 151.174897 118.52373 
L 151.174897 118.264517 
L 151.174896 118.005304 
L 151.174412 117.746091 
L 151.173476 117.486878 
L 151.176318 117.486878 
L 151.176318 117.486878 
L 151.175383 117.746091 
L 151.174899 118.005304 
L 151.174897 118.264517 
L 151.174897 118.52373 
L 151.174897 118.782943 
L 151.174898 119.042156 
L 151.175158 119.301369 
L 151.176708 119.560582 
L 151.175857 119.819795 
L 151.175579 120.079008 
L 151.175182 120.338221 
L 151.174908 120.597434 
L 151.175803 120.856647 
L 151.175961 121.11586 
L 151.175012 121.375073 
L 151.176339 121.634286 
L 151.177135 121.893499 
L 151.175116 122.152712 
L 151.176173 122.411925 
L 151.177715 122.671138 
L 151.177717 122.930351 
L 151.176438 123.189563 
L 151.175821 123.448776 
L 151.176273 123.707989 
L 151.179547 123.967202 
L 151.179519 124.226415 
L 151.179 124.485628 
L 151.17909 124.744841 
L 151.180481 125.004054 
L 151.180681 125.263267 
L 151.184371 125.52248 
L 151.18349 125.781693 
L 151.17949 126.040906 
L 151.182803 126.300119 
L 151.18299 126.559332 
L 151.182939 126.818545 
L 151.189482 127.077758 
L 151.192122 127.336971 
L 151.194325 127.596184 
L 151.199365 127.855397 
L 151.190006 128.11461 
L 151.194842 128.373823 
L 151.200464 128.633036 
L 151.211159 128.892249 
L 151.20909 129.151462 
L 151.218968 129.410675 
L 151.221474 129.669888 
L 151.228957 129.9291 
L 151.240397 130.188313 
L 151.262124 130.447526 
L 151.262735 130.706739 
L 151.266453 130.965952 
L 151.283736 131.225165 
L 151.291791 131.484378 
L 151.325865 131.743591 
L 151.349676 132.002804 
L 151.380101 132.262017 
L 151.410357 132.52123 
L 151.477667 132.780443 
L 151.545188 133.039656 
L 151.588333 133.298869 
L 151.685968 133.558082 
L 151.813353 133.817295 
L 151.960558 134.076508 
L 152.181974 134.335721 
L 152.437495 134.594934 
L 152.784185 134.854147 
L 153.306169 135.11336 
L 153.947162 135.372573 
L 154.83277 135.631786 
L 156.094536 135.890999 
L 157.760204 136.150212 
L 159.892354 136.409425 
L 162.976036 136.668637 
L 166.789833 136.92785 
L 171.474593 137.187063 
L 176.444917 137.446276 
L 174.998259 137.705489 
L 157.097005 137.964702 
z
" clip-path="url(#p757a56ea4b)" style="fill: #add8e6"/>
   </g>
   <g id="PolyCollection_3">
    <path d="M 83.763075 137.964702 
L 74.186609 137.964702 
L 60.785639 137.88923 
L 53.704823 137.813758 
L 53.988364 137.738286 
L 58.46421 137.662814 
L 63.049025 137.587342 
L 66.920707 137.51187 
L 69.719702 137.436398 
L 71.926916 137.360926 
L 73.877369 137.285454 
L 75.177394 137.209982 
L 76.083088 137.13451 
L 76.904492 137.059037 
L 77.321922 136.983565 
L 77.670796 136.908093 
L 78.017834 136.832621 
L 78.242046 136.757149 
L 78.381831 136.681677 
L 78.491863 136.606205 
L 78.606145 136.530733 
L 78.652817 136.455261 
L 78.720614 136.379789 
L 78.773758 136.304317 
L 78.814691 136.228845 
L 78.848062 136.153373 
L 78.866598 136.077901 
L 78.891565 136.002429 
L 78.898537 135.926956 
L 78.912612 135.851484 
L 78.920951 135.776012 
L 78.929619 135.70054 
L 78.941889 135.625068 
L 78.943049 135.549596 
L 78.949343 135.474124 
L 78.960105 135.398652 
L 78.95918 135.32318 
L 78.961145 135.247708 
L 78.964305 135.172236 
L 78.968633 135.096764 
L 78.964062 135.021292 
L 78.965523 134.94582 
L 78.96884 134.870348 
L 78.968972 134.794875 
L 78.96758 134.719403 
L 78.968852 134.643931 
L 78.968371 134.568459 
L 78.969643 134.492987 
L 78.971053 134.417515 
L 78.973352 134.342043 
L 78.974178 134.266571 
L 78.971198 134.191099 
L 78.974108 134.115627 
L 78.973977 134.040155 
L 78.974535 133.964683 
L 78.971829 133.889211 
L 78.974516 133.813739 
L 78.972437 133.738267 
L 78.974025 133.662794 
L 78.97484 133.587322 
L 78.974758 133.51185 
L 78.972484 133.436378 
L 78.974731 133.360906 
L 78.971922 133.285434 
L 78.974331 133.209962 
L 78.974842 133.13449 
L 78.974842 133.059018 
L 78.974842 132.983546 
L 78.974842 132.908074 
L 78.974842 132.832602 
L 78.974842 132.75713 
L 78.974842 132.681658 
L 78.974842 132.606186 
L 78.974842 132.530713 
L 78.974842 132.455241 
L 78.974842 132.379769 
L 78.974842 132.304297 
L 78.974842 132.228825 
L 78.974842 132.153353 
L 78.974807 132.077881 
L 78.97366 132.002409 
L 78.976024 132.002409 
L 78.976024 132.002409 
L 78.974877 132.077881 
L 78.974842 132.153353 
L 78.974842 132.228825 
L 78.974842 132.304297 
L 78.974842 132.379769 
L 78.974842 132.455241 
L 78.974842 132.530713 
L 78.974842 132.606186 
L 78.974842 132.681658 
L 78.974842 132.75713 
L 78.974842 132.832602 
L 78.974842 132.908074 
L 78.974842 132.983546 
L 78.974842 133.059018 
L 78.974842 133.13449 
L 78.975353 133.209962 
L 78.977762 133.285434 
L 78.974953 133.360906 
L 78.977201 133.436378 
L 78.974927 133.51185 
L 78.974844 133.587322 
L 78.975659 133.662794 
L 78.977247 133.738267 
L 78.975168 133.813739 
L 78.977855 133.889211 
L 78.975149 133.964683 
L 78.975707 134.040155 
L 78.975576 134.115627 
L 78.978486 134.191099 
L 78.975506 134.266571 
L 78.976332 134.342043 
L 78.978631 134.417515 
L 78.980041 134.492987 
L 78.981314 134.568459 
L 78.980832 134.643931 
L 78.982105 134.719403 
L 78.980713 134.794875 
L 78.980845 134.870348 
L 78.984162 134.94582 
L 78.985622 135.021292 
L 78.981051 135.096764 
L 78.985379 135.172236 
L 78.98854 135.247708 
L 78.990504 135.32318 
L 78.989579 135.398652 
L 79.000342 135.474124 
L 79.006636 135.549596 
L 79.007795 135.625068 
L 79.020065 135.70054 
L 79.028733 135.776012 
L 79.037072 135.851484 
L 79.051148 135.926956 
L 79.058119 136.002429 
L 79.083086 136.077901 
L 79.101622 136.153373 
L 79.134994 136.228845 
L 79.175926 136.304317 
L 79.229071 136.379789 
L 79.296867 136.455261 
L 79.34354 136.530733 
L 79.457821 136.606205 
L 79.567853 136.681677 
L 79.707638 136.757149 
L 79.93185 136.832621 
L 80.278888 136.908093 
L 80.627762 136.983565 
L 81.045192 137.059037 
L 81.866597 137.13451 
L 82.77229 137.209982 
L 84.072315 137.285454 
L 86.022769 137.360926 
L 88.229982 137.436398 
L 91.028977 137.51187 
L 94.900659 137.587342 
L 99.485474 137.662814 
L 103.96132 137.738286 
L 104.244861 137.813758 
L 97.164045 137.88923 
L 83.763075 137.964702 
z
" clip-path="url(#p757a56ea4b)" style="fill: #228b22"/>
   </g>
   <g id="matplotlib.axis_1">
    <g id="xtick_1">
     <g id="line2d_1">
      <defs>
       <path id="m890cd8d715" d="M 0 0 
L 0 3.5 
" style="stroke: #000000; stroke-width: 0.8"/>
      </defs>
      <g>
       <use xlink:href="#m890cd8d715" x="78.974842" y="143.89734" style="stroke: #000000; stroke-width: 0.8"/>
      </g>
     </g>
     <g id="text_1">
      <text style="font: 8px 'Arial'" transform="translate(54.959217 156.62359)">Infection and </text>
      <text style="font: 8px 'Arial'" transform="translate(57.852967 165.08509)"> vaccination</text>
     </g>
    </g>
    <g id="xtick_2">
     <g id="line2d_2">
      <g>
       <use xlink:href="#m890cd8d715" x="151.174897" y="143.89734" style="stroke: #000000; stroke-width: 0.8"/>
      </g>
     </g>
     <g id="text_2">
      <text style="font: 8px 'Arial'; text-anchor: middle" x="151.174897" y="156.72609" transform="rotate(-0 151.174897 156.72609)">Only infection</text>
     </g>
    </g>
    <g id="xtick_3">
     <g id="line2d_3">
      <g>
       <use xlink:href="#m890cd8d715" x="223.374953" y="143.89734" style="stroke: #000000; stroke-width: 0.8"/>
      </g>
     </g>
     <g id="text_3">
      <text style="font: 8px 'Arial'; text-anchor: middle" x="223.374953" y="156.72609" transform="rotate(-0 223.374953 156.72609)">Only vaccination</text>
     </g>
    </g>
   </g>
   <g id="matplotlib.axis_2">
    <g id="ytick_1">
     <g id="line2d_4">
      <defs>
       <path id="m000324c50c" d="M 0 0 
L -3.5 0 
" style="stroke: #000000; stroke-width: 0.8"/>
      </defs>
      <g>
       <use xlink:href="#m000324c50c" x="43.957815" y="137.964702" style="stroke: #000000; stroke-width: 0.8"/>
      </g>
     </g>
     <g id="text_4">
      <text style="font: 7px 'Arial'; text-anchor: end" x="36.957815" y="140.469937" transform="rotate(-0 36.957815 140.469937)">0</text>
     </g>
    </g>
    <g id="ytick_2">
     <g id="line2d_5">
      <g>
       <use xlink:href="#m000324c50c" x="43.957815" y="119.424155" style="stroke: #000000; stroke-width: 0.8"/>
      </g>
     </g>
     <g id="text_5">
      <text style="font: 7px 'Arial'; text-anchor: end" x="36.957815" y="121.92939" transform="rotate(-0 36.957815 121.92939)">1</text>
     </g>
    </g>
    <g id="ytick_3">
     <g id="line2d_6">
      <g>
       <use xlink:href="#m000324c50c" x="43.957815" y="100.883609" style="stroke: #000000; stroke-width: 0.8"/>
      </g>
     </g>
     <g id="text_6">
      <text style="font: 7px 'Arial'; text-anchor: end" x="36.957815" y="103.388843" transform="rotate(-0 36.957815 103.388843)">2</text>
     </g>
    </g>
    <g id="ytick_4">
     <g id="line2d_7">
      <g>
       <use xlink:href="#m000324c50c" x="43.957815" y="82.343062" style="stroke: #000000; stroke-width: 0.8"/>
      </g>
     </g>
     <g id="text_7">
      <text style="font: 7px 'Arial'; text-anchor: end" x="36.957815" y="84.848296" transform="rotate(-0 36.957815 84.848296)">3</text>
     </g>
    </g>
    <g id="ytick_5">
     <g id="line2d_8">
      <g>
       <use xlink:href="#m000324c50c" x="43.957815" y="63.802515" style="stroke: #000000; stroke-width: 0.8"/>
      </g>
     </g>
     <g id="text_8">
      <text style="font: 7px 'Arial'; text-anchor: end" x="36.957815" y="66.307749" transform="rotate(-0 36.957815 66.307749)">4</text>
     </g>
    </g>
    <g id="ytick_6">
     <g id="line2d_9">
      <g>
       <use xlink:href="#m000324c50c" x="43.957815" y="45.261968" style="stroke: #000000; stroke-width: 0.8"/>
      </g>
     </g>
     <g id="text_9">
      <text style="font: 7px 'Arial'; text-anchor: end" x="36.957815" y="47.767202" transform="rotate(-0 36.957815 47.767202)">5</text>
     </g>
    </g>
    <g id="ytick_7">
     <g id="line2d_10">
      <g>
       <use xlink:href="#m000324c50c" x="43.957815" y="26.721421" style="stroke: #000000; stroke-width: 0.8"/>
      </g>
     </g>
     <g id="text_10">
      <text style="font: 7px 'Arial'; text-anchor: end" x="36.957815" y="29.226655" transform="rotate(-0 36.957815 29.226655)">6</text>
     </g>
    </g>
    <g id="text_11">
     <text style="font: 8px 'Arial'; text-anchor: middle" x="27.381409" y="78.638324" transform="rotate(-90 27.381409 78.638324)">Outbreak size (% of population)</text>
    </g>
   </g>
   <g id="line2d_11">
    <path d="M 216.154947 69.134864 
L 230.594958 69.134864 
" clip-path="url(#p757a56ea4b)" style="fill: none; stroke: #000000; stroke-width: 1.5; stroke-linecap: square"/>
   </g>
   <g id="line2d_12">
    <path d="M 143.954892 136.802229 
L 158.394903 136.802229 
" clip-path="url(#p757a56ea4b)" style="fill: none; stroke: #000000; stroke-width: 1.5; stroke-linecap: square"/>
   </g>
   <g id="line2d_13">
    <path d="M 71.754837 137.598999 
L 86.194848 137.598999 
" clip-path="url(#p757a56ea4b)" style="fill: none; stroke: #000000; stroke-width: 1.5; stroke-linecap: square"/>
   </g>
   <g id="patch_3">
    <path d="M 43.957815 143.89734 
L 43.957815 13.379307 
" style="fill: none; stroke: #000000; stroke-width: 0.8; stroke-linejoin: miter; stroke-linecap: square"/>
   </g>
   <g id="patch_4">
    <path d="M 43.957815 143.89734 
L 258.39198 143.89734 
" style="fill: none; stroke: #000000; stroke-width: 0.8; stroke-linejoin: miter; stroke-linecap: square"/>
   </g>
  </g>
  <g id="axes_2">
   <g id="patch_5">
    <path d="M 84.979498 101.063402 
L 187.026743 101.063402 
L 187.026743 16.024032 
L 84.979498 16.024032 
z
" style="fill: #ffffff"/>
   </g>
   <g id="PolyCollection_4">
    <path d="M 167.764566 101.063402 
L 158.812394 101.063402 
L 145.28215 98.685553 
L 144.188728 96.307704 
L 147.945431 93.929856 
L 151.486297 91.552007 
L 154.368866 89.174159 
L 156.699595 86.79631 
L 158.31113 84.418461 
L 159.570086 82.040613 
L 160.523762 79.662764 
L 161.193129 77.284915 
L 161.677608 74.907067 
L 162.072138 72.529218 
L 162.334175 70.15137 
L 162.527304 67.773521 
L 162.694657 65.395672 
L 162.805918 63.017824 
L 162.902199 60.639975 
L 162.975994 58.262126 
L 163.008605 55.884278 
L 163.059639 53.506429 
L 163.110513 51.128581 
L 163.133381 48.750732 
L 163.156378 46.372883 
L 163.174374 43.995035 
L 163.200128 41.617186 
L 163.206216 39.239337 
L 163.21928 36.861489 
L 163.22209 34.48364 
L 163.222552 32.105792 
L 163.238973 29.727943 
L 163.24762 27.350094 
L 163.253276 24.972246 
L 163.25517 22.594397 
L 163.262636 20.216548 
L 163.261072 17.8387 
L 163.269156 15.460851 
L 163.273405 13.083003 
L 163.277061 10.705154 
L 163.269987 8.327305 
L 163.273796 5.949457 
L 163.275461 3.571608 
L 163.277457 1.193759 
L 163.282402 -1.184089 
L 163.282363 -3.561938 
L 163.282504 -5.939786 
L 163.285008 -8.317635 
L 163.281985 -10.695484 
L 163.281319 -13.073332 
L 163.284109 -15.451181 
L 163.28426 -17.82903 
L 163.285311 -20.206878 
L 163.285379 -22.584727 
L 163.284986 -24.962575 
L 163.284965 -27.340424 
L 163.28744 -29.718273 
L 163.287782 -32.096121 
L 163.287315 -34.47397 
L 163.286349 -36.851819 
L 163.28635 -39.229667 
L 163.287516 -41.607516 
L 163.288314 -43.985364 
L 163.286788 -46.363213 
L 163.28739 -48.741062 
L 163.288393 -51.11891 
L 163.287676 -53.496759 
L 163.287795 -55.874608 
L 163.288471 -58.252456 
L 163.288264 -60.630305 
L 163.287964 -63.008153 
L 163.287755 -65.386002 
L 163.287111 -67.763851 
L 163.288283 -70.141699 
L 163.28848 -72.519548 
L 163.28848 -74.897397 
L 163.28848 -77.275245 
L 163.28848 -79.653094 
L 163.288479 -82.030942 
L 163.288113 -84.408791 
L 163.287406 -86.78664 
L 163.289554 -86.78664 
L 163.289554 -86.78664 
L 163.288847 -84.408791 
L 163.288481 -82.030942 
L 163.28848 -79.653094 
L 163.28848 -77.275245 
L 163.28848 -74.897397 
L 163.28848 -72.519548 
L 163.288677 -70.141699 
L 163.289849 -67.763851 
L 163.289205 -65.386002 
L 163.288995 -63.008153 
L 163.288695 -60.630305 
L 163.288488 -58.252456 
L 163.289164 -55.874608 
L 163.289283 -53.496759 
L 163.288567 -51.11891 
L 163.28957 -48.741062 
L 163.290171 -46.363213 
L 163.288645 -43.985364 
L 163.289444 -41.607516 
L 163.290609 -39.229667 
L 163.290611 -36.851819 
L 163.289644 -34.47397 
L 163.289178 -32.096121 
L 163.289519 -29.718273 
L 163.291994 -27.340424 
L 163.291973 -24.962575 
L 163.291581 -22.584727 
L 163.291649 -20.206878 
L 163.2927 -17.82903 
L 163.292851 -15.451181 
L 163.29564 -13.073332 
L 163.294974 -10.695484 
L 163.291951 -8.317635 
L 163.294455 -5.939786 
L 163.294596 -3.561938 
L 163.294558 -1.184089 
L 163.299503 1.193759 
L 163.301498 3.571608 
L 163.303164 5.949457 
L 163.306973 8.327305 
L 163.299899 10.705154 
L 163.303555 13.083003 
L 163.307804 15.460851 
L 163.315887 17.8387 
L 163.314324 20.216548 
L 163.32179 22.594397 
L 163.323684 24.972246 
L 163.32934 27.350094 
L 163.337987 29.727943 
L 163.354408 32.105792 
L 163.35487 34.48364 
L 163.35768 36.861489 
L 163.370743 39.239337 
L 163.376831 41.617186 
L 163.402585 43.995035 
L 163.420582 46.372883 
L 163.443578 48.750732 
L 163.466447 51.128581 
L 163.517321 53.506429 
L 163.568355 55.884278 
L 163.600965 58.262126 
L 163.67476 60.639975 
L 163.771042 63.017824 
L 163.882303 65.395672 
L 164.049655 67.773521 
L 164.242785 70.15137 
L 164.504822 72.529218 
L 164.899352 74.907067 
L 165.383831 77.284915 
L 166.053197 79.662764 
L 167.006873 82.040613 
L 168.265829 84.418461 
L 169.877365 86.79631 
L 172.208094 89.174159 
L 175.090662 91.552007 
L 178.631528 93.929856 
L 182.388231 96.307704 
L 181.294809 98.685553 
L 167.764566 101.063402 
z
" clip-path="url(#p57b454eee5)" style="fill: #add8e6"/>
   </g>
   <g id="PolyCollection_5">
    <path d="M 112.336835 101.063402 
L 105.098687 101.063402 
L 94.969879 100.371071 
L 89.61801 99.67874 
L 89.832317 98.986409 
L 93.215281 98.294078 
L 96.680606 97.601747 
L 99.606926 96.909416 
L 101.722481 96.217085 
L 103.390751 95.524754 
L 104.864956 94.832423 
L 105.847549 94.140092 
L 106.532096 93.447761 
L 107.152936 92.755431 
L 107.46844 92.0631 
L 107.732129 91.370769 
L 107.994429 90.678438 
L 108.163894 89.986107 
L 108.269548 89.293776 
L 108.352713 88.601445 
L 108.43909 87.909114 
L 108.474366 87.216783 
L 108.525608 86.524452 
L 108.565776 85.832121 
L 108.596714 85.13979 
L 108.621938 84.447459 
L 108.635947 83.755129 
L 108.654818 83.062798 
L 108.660087 82.370467 
L 108.670726 81.678136 
L 108.677029 80.985805 
L 108.68358 80.293474 
L 108.692854 79.601143 
L 108.693731 78.908812 
L 108.698488 78.216481 
L 108.706622 77.52415 
L 108.705923 76.831819 
L 108.707408 76.139488 
L 108.709797 75.447157 
L 108.713068 74.754826 
L 108.709613 74.062496 
L 108.710717 73.370165 
L 108.713224 72.677834 
L 108.713324 71.985503 
L 108.712272 71.293172 
L 108.713234 70.600841 
L 108.71287 69.90851 
L 108.713832 69.216179 
L 108.714897 68.523848 
L 108.716635 67.831517 
L 108.717259 67.139186 
L 108.715007 66.446855 
L 108.717206 65.754524 
L 108.717107 65.062194 
L 108.717529 64.369863 
L 108.715484 63.677532 
L 108.717515 62.985201 
L 108.715943 62.29287 
L 108.717143 61.600539 
L 108.717759 60.908208 
L 108.717697 60.215877 
L 108.715978 59.523546 
L 108.717677 58.831215 
L 108.715554 58.138884 
L 108.717375 57.446553 
L 108.717761 56.754222 
L 108.717761 56.061891 
L 108.717761 55.369561 
L 108.717761 54.67723 
L 108.717761 53.984899 
L 108.717761 53.292568 
L 108.717761 52.600237 
L 108.717761 51.907906 
L 108.717761 51.215575 
L 108.717761 50.523244 
L 108.717761 49.830913 
L 108.717761 49.138582 
L 108.717761 48.446251 
L 108.717761 47.75392 
L 108.717734 47.061589 
L 108.716868 46.369259 
L 108.718655 46.369259 
L 108.718655 46.369259 
L 108.717788 47.061589 
L 108.717761 47.75392 
L 108.717761 48.446251 
L 108.717761 49.138582 
L 108.717761 49.830913 
L 108.717761 50.523244 
L 108.717761 51.215575 
L 108.717761 51.907906 
L 108.717761 52.600237 
L 108.717761 53.292568 
L 108.717761 53.984899 
L 108.717761 54.67723 
L 108.717761 55.369561 
L 108.717761 56.061891 
L 108.717761 56.754222 
L 108.718147 57.446553 
L 108.719968 58.138884 
L 108.717845 58.831215 
L 108.719544 59.523546 
L 108.717825 60.215877 
L 108.717763 60.908208 
L 108.718379 61.600539 
L 108.719579 62.29287 
L 108.718008 62.985201 
L 108.720038 63.677532 
L 108.717993 64.369863 
L 108.718415 65.062194 
L 108.718316 65.754524 
L 108.720515 66.446855 
L 108.718263 67.139186 
L 108.718887 67.831517 
L 108.720625 68.523848 
L 108.721691 69.216179 
L 108.722652 69.90851 
L 108.722289 70.600841 
L 108.72325 71.293172 
L 108.722198 71.985503 
L 108.722298 72.677834 
L 108.724805 73.370165 
L 108.725909 74.062496 
L 108.722454 74.754826 
L 108.725725 75.447157 
L 108.728114 76.139488 
L 108.729599 76.831819 
L 108.7289 77.52415 
L 108.737034 78.216481 
L 108.741791 78.908812 
L 108.742668 79.601143 
L 108.751942 80.293474 
L 108.758493 80.985805 
L 108.764796 81.678136 
L 108.775435 82.370467 
L 108.780704 83.062798 
L 108.799575 83.755129 
L 108.813585 84.447459 
L 108.838808 85.13979 
L 108.869746 85.832121 
L 108.909914 86.524452 
L 108.961156 87.216783 
L 108.996433 87.909114 
L 109.082809 88.601445 
L 109.165975 89.293776 
L 109.271628 89.986107 
L 109.441093 90.678438 
L 109.703394 91.370769 
L 109.967082 92.0631 
L 110.282587 92.755431 
L 110.903426 93.447761 
L 111.587973 94.140092 
L 112.570566 94.832423 
L 114.044771 95.524754 
L 115.713041 96.217085 
L 117.828596 96.909416 
L 120.754917 97.601747 
L 124.220241 98.294078 
L 127.603205 98.986409 
L 127.817513 99.67874 
L 122.465643 100.371071 
L 112.336835 101.063402 
z
" clip-path="url(#p57b454eee5)" style="fill: #228b22"/>
   </g>
   <g id="matplotlib.axis_3">
    <g id="xtick_4">
     <g id="line2d_14">
      <g>
       <use xlink:href="#m890cd8d715" x="108.717761" y="101.063402" style="stroke: #000000; stroke-width: 0.8"/>
      </g>
     </g>
     <g id="text_12">
      <text style="font: 7px 'Arial'" transform="translate(87.704089 113.07387)">Infection and </text>
      <text style="font: 7px 'Arial'" transform="translate(90.23612 120.477683)"> vaccination</text>
     </g>
    </g>
    <g id="xtick_5">
     <g id="line2d_15">
      <g>
       <use xlink:href="#m890cd8d715" x="163.28848" y="101.063402" style="stroke: #000000; stroke-width: 0.8"/>
      </g>
     </g>
     <g id="text_13">
      <text style="font: 7px 'Arial'; text-anchor: middle" x="163.28848" y="113.163558" transform="rotate(-0 163.28848 113.163558)">Only infection</text>
     </g>
    </g>
   </g>
   <g id="matplotlib.axis_4">
    <g id="ytick_8">
     <g id="line2d_16">
      <g>
       <use xlink:href="#m000324c50c" x="84.979498" y="101.063402" style="stroke: #000000; stroke-width: 0.8"/>
      </g>
     </g>
     <g id="text_14">
      <text style="font: 7px 'Arial'; text-anchor: end" x="77.979498" y="103.568636" transform="rotate(-0 77.979498 103.568636)">0.0</text>
     </g>
    </g>
    <g id="ytick_9">
     <g id="line2d_17">
      <g>
       <use xlink:href="#m000324c50c" x="84.979498" y="84.055528" style="stroke: #000000; stroke-width: 0.8"/>
      </g>
     </g>
     <g id="text_15">
      <text style="font: 7px 'Arial'; text-anchor: end" x="77.979498" y="86.560762" transform="rotate(-0 77.979498 86.560762)">0.1</text>
     </g>
    </g>
    <g id="ytick_10">
     <g id="line2d_18">
      <g>
       <use xlink:href="#m000324c50c" x="84.979498" y="67.047654" style="stroke: #000000; stroke-width: 0.8"/>
      </g>
     </g>
     <g id="text_16">
      <text style="font: 7px 'Arial'; text-anchor: end" x="77.979498" y="69.552888" transform="rotate(-0 77.979498 69.552888)">0.2</text>
     </g>
    </g>
    <g id="ytick_11">
     <g id="line2d_19">
      <g>
       <use xlink:href="#m000324c50c" x="84.979498" y="50.03978" style="stroke: #000000; stroke-width: 0.8"/>
      </g>
     </g>
     <g id="text_17">
      <text style="font: 7px 'Arial'; text-anchor: end" x="77.979498" y="52.545014" transform="rotate(-0 77.979498 52.545014)">0.3</text>
     </g>
    </g>
    <g id="ytick_12">
     <g id="line2d_20">
      <g>
       <use xlink:href="#m000324c50c" x="84.979498" y="33.031906" style="stroke: #000000; stroke-width: 0.8"/>
      </g>
     </g>
     <g id="text_18">
      <text style="font: 7px 'Arial'; text-anchor: end" x="77.979498" y="35.53714" transform="rotate(-0 77.979498 35.53714)">0.4</text>
     </g>
    </g>
    <g id="ytick_13">
     <g id="line2d_21">
      <g>
       <use xlink:href="#m000324c50c" x="84.979498" y="16.024032" style="stroke: #000000; stroke-width: 0.8"/>
      </g>
     </g>
     <g id="text_19">
      <text style="font: 7px 'Arial'; text-anchor: end" x="77.979498" y="18.529266" transform="rotate(-0 77.979498 18.529266)">0.5</text>
     </g>
    </g>
    <g id="text_20">
     <text style="font: 8px 'Arial'; text-anchor: middle" x="62.565748" y="58.543717" transform="rotate(-90 62.565748 58.543717)">Outbreak size (%)</text>
    </g>
   </g>
   <g id="line2d_22">
    <path d="M 157.831408 90.399642 
L 168.745552 90.399642 
" clip-path="url(#p57b454eee5)" style="fill: none; stroke: #000000; stroke-width: 1.5; stroke-linecap: square"/>
   </g>
   <g id="line2d_23">
    <path d="M 103.260689 97.708678 
L 114.174833 97.708678 
" clip-path="url(#p57b454eee5)" style="fill: none; stroke: #000000; stroke-width: 1.5; stroke-linecap: square"/>
   </g>
   <g id="patch_6">
    <path d="M 84.979498 101.063402 
L 84.979498 16.024032 
" style="fill: none; stroke: #000000; stroke-width: 0.8; stroke-linejoin: miter; stroke-linecap: square"/>
   </g>
   <g id="patch_7">
    <path d="M 84.979498 101.063402 
L 187.026743 101.063402 
" style="fill: none; stroke: #000000; stroke-width: 0.8; stroke-linejoin: miter; stroke-linecap: square"/>
   </g>
  </g>
  <g id="axes_3">
   <g id="patch_8">
    <path d="M 296.686122 143.89734 
L 511.120286 143.89734 
L 511.120286 13.379307 
L 296.686122 13.379307 
z
" style="fill: #ffffff"/>
   </g>
   <g id="PolyCollection_6">
    <defs>
     <path id="mbc2b29528a" d="M 306.433129 -326.5713 
L 306.433129 -246.332477 
L 314.230735 -236.745203 
L 322.028341 -228.664456 
L 329.825947 -223.711829 
L 337.623553 -222.322486 
L 345.421159 -221.122212 
L 353.218765 -220.10427 
L 361.016371 -217.744156 
L 368.813977 -215.112615 
L 376.611583 -210.641594 
L 384.409189 -207.918543 
L 392.206795 -207.918543 
L 400.004401 -207.918543 
L 407.802007 -207.918543 
L 415.599613 -207.918543 
L 423.397219 -207.918543 
L 431.194825 -207.918543 
L 438.992431 -207.918543 
L 446.790037 -207.918543 
L 454.587643 -207.918543 
L 462.385248 -207.918543 
L 470.182854 -207.918543 
L 477.98046 -207.918543 
L 485.778066 -207.918543 
L 493.575672 -207.918543 
L 501.373278 -207.918543 
L 501.373278 -250.759132 
L 501.373278 -250.759132 
L 493.575672 -252.248014 
L 485.778066 -253.80913 
L 477.98046 -255.274855 
L 470.182854 -256.687383 
L 462.385248 -258.113142 
L 454.587643 -259.455448 
L 446.790037 -260.833353 
L 438.992431 -262.332607 
L 431.194825 -263.654063 
L 423.397219 -265.293234 
L 415.599613 -266.797584 
L 407.802007 -268.407212 
L 400.004401 -270.1679 
L 392.206795 -271.938652 
L 384.409189 -274.093179 
L 376.611583 -276.559255 
L 368.813977 -279.274711 
L 361.016371 -282.555122 
L 353.218765 -286.097822 
L 345.421159 -289.793482 
L 337.623553 -292.778662 
L 329.825947 -294.509665 
L 322.028341 -293.264043 
L 314.230735 -295.007452 
L 306.433129 -326.5713 
z
" style="stroke: #ff7f50; stroke-opacity: 0.5"/>
    </defs>
    <g clip-path="url(#p425cc513be)">
     <use xlink:href="#mbc2b29528a" x="0" y="345.883245" style="fill: #ff7f50; fill-opacity: 0.5; stroke: #ff7f50; stroke-opacity: 0.5"/>
    </g>
   </g>
   <g id="PolyCollection_7">
    <defs>
     <path id="mf71b572c3c" d="M 306.433129 -312.717759 
L 306.433129 -241.835194 
L 314.230735 -232.850523 
L 322.028341 -222.157222 
L 329.825947 -214.835934 
L 337.623553 -207.918543 
L 345.421159 -207.918543 
L 353.218765 -207.918543 
L 361.016371 -207.918543 
L 368.813977 -207.918543 
L 376.611583 -207.918543 
L 384.409189 -207.918543 
L 392.206795 -207.918543 
L 400.004401 -207.918543 
L 407.802007 -207.918543 
L 415.599613 -207.918543 
L 423.397219 -207.918543 
L 431.194825 -207.918543 
L 438.992431 -207.918543 
L 446.790037 -207.918543 
L 454.587643 -207.918543 
L 462.385248 -207.918543 
L 470.182854 -207.918543 
L 477.98046 -207.918543 
L 485.778066 -207.918543 
L 493.575672 -207.918543 
L 501.373278 -207.918543 
L 501.373278 -233.918603 
L 501.373278 -233.918603 
L 493.575672 -237.427159 
L 485.778066 -240.22806 
L 477.98046 -243.114102 
L 470.182854 -245.59214 
L 462.385248 -248.018606 
L 454.587643 -250.292715 
L 446.790037 -252.889825 
L 438.992431 -255.659035 
L 431.194825 -257.739689 
L 423.397219 -260.354654 
L 415.599613 -262.944187 
L 407.802007 -265.470836 
L 400.004401 -267.635419 
L 392.206795 -269.833002 
L 384.409189 -271.917246 
L 376.611583 -273.943551 
L 368.813977 -274.637654 
L 361.016371 -275.114907 
L 353.218765 -274.603181 
L 345.421159 -272.888179 
L 337.623553 -270.629856 
L 329.825947 -268.936321 
L 322.028341 -270.526652 
L 314.230735 -281.042509 
L 306.433129 -312.717759 
z
" style="stroke: #add8e6; stroke-opacity: 0.7"/>
    </defs>
    <g clip-path="url(#p425cc513be)">
     <use xlink:href="#mf71b572c3c" x="0" y="345.883245" style="fill: #add8e6; fill-opacity: 0.7; stroke: #add8e6; stroke-opacity: 0.7"/>
    </g>
   </g>
   <g id="PolyCollection_8">
    <defs>
     <path id="md0cb7efe6b" d="M 306.433129 -265.27623 
L 306.433129 -226.302666 
L 314.230735 -222.444139 
L 322.028341 -215.839915 
L 329.825947 -207.918543 
L 337.623553 -207.918543 
L 345.421159 -207.918543 
L 353.218765 -207.918543 
L 361.016371 -207.918543 
L 368.813977 -207.918543 
L 376.611583 -207.918543 
L 384.409189 -207.918543 
L 392.206795 -207.918543 
L 400.004401 -207.918543 
L 407.802007 -207.918543 
L 415.599613 -207.918543 
L 423.397219 -207.918543 
L 431.194825 -207.918543 
L 438.992431 -207.918543 
L 446.790037 -207.918543 
L 454.587643 -207.918543 
L 462.385248 -207.918543 
L 470.182854 -207.918543 
L 477.98046 -207.918543 
L 485.778066 -207.918543 
L 493.575672 -207.918543 
L 501.373278 -207.918543 
L 501.373278 -207.918543 
L 501.373278 -207.918543 
L 493.575672 -207.918543 
L 485.778066 -207.918543 
L 477.98046 -207.918543 
L 470.182854 -207.918543 
L 462.385248 -207.918543 
L 454.587643 -207.918543 
L 446.790037 -207.918543 
L 438.992431 -207.918543 
L 431.194825 -210.449886 
L 423.397219 -214.640322 
L 415.599613 -218.43279 
L 407.802007 -223.954129 
L 400.004401 -230.383428 
L 392.206795 -236.75261 
L 384.409189 -242.706322 
L 376.611583 -247.577273 
L 368.813977 -251.979159 
L 361.016371 -256.084917 
L 353.218765 -258.421412 
L 345.421159 -258.883107 
L 337.623553 -256.739448 
L 329.825947 -252.887758 
L 322.028341 -250.808091 
L 314.230735 -253.447583 
L 306.433129 -265.27623 
z
" style="stroke: #228b22; stroke-opacity: 0.5"/>
    </defs>
    <g clip-path="url(#p425cc513be)">
     <use xlink:href="#md0cb7efe6b" x="0" y="345.883245" style="fill: #228b22; fill-opacity: 0.5; stroke: #228b22; stroke-opacity: 0.5"/>
    </g>
   </g>
   <g id="matplotlib.axis_5">
    <g id="xtick_6">
     <g id="line2d_24">
      <g>
       <use xlink:href="#m890cd8d715" x="306.433129" y="143.89734" style="stroke: #000000; stroke-width: 0.8"/>
      </g>
     </g>
     <g id="text_21">
      <text style="font: 7px 'Arial'; text-anchor: middle" x="306.433129" y="155.907809" transform="rotate(-0 306.433129 155.907809)">0</text>
     </g>
    </g>
    <g id="xtick_7">
     <g id="line2d_25">
      <g>
       <use xlink:href="#m890cd8d715" x="345.421159" y="143.89734" style="stroke: #000000; stroke-width: 0.8"/>
      </g>
     </g>
     <g id="text_22">
      <text style="font: 7px 'Arial'; text-anchor: middle" x="345.421159" y="155.907809" transform="rotate(-0 345.421159 155.907809)">5</text>
     </g>
    </g>
    <g id="xtick_8">
     <g id="line2d_26">
      <g>
       <use xlink:href="#m890cd8d715" x="384.409189" y="143.89734" style="stroke: #000000; stroke-width: 0.8"/>
      </g>
     </g>
     <g id="text_23">
      <text style="font: 7px 'Arial'; text-anchor: middle" x="384.409189" y="155.907809" transform="rotate(-0 384.409189 155.907809)">10</text>
     </g>
    </g>
    <g id="xtick_9">
     <g id="line2d_27">
      <g>
       <use xlink:href="#m890cd8d715" x="423.397219" y="143.89734" style="stroke: #000000; stroke-width: 0.8"/>
      </g>
     </g>
     <g id="text_24">
      <text style="font: 7px 'Arial'; text-anchor: middle" x="423.397219" y="155.907809" transform="rotate(-0 423.397219 155.907809)">15</text>
     </g>
    </g>
    <g id="xtick_10">
     <g id="line2d_28">
      <g>
       <use xlink:href="#m890cd8d715" x="462.385248" y="143.89734" style="stroke: #000000; stroke-width: 0.8"/>
      </g>
     </g>
     <g id="text_25">
      <text style="font: 7px 'Arial'; text-anchor: middle" x="462.385248" y="155.907809" transform="rotate(-0 462.385248 155.907809)">20</text>
     </g>
    </g>
    <g id="xtick_11">
     <g id="line2d_29">
      <g>
       <use xlink:href="#m890cd8d715" x="501.373278" y="143.89734" style="stroke: #000000; stroke-width: 0.8"/>
      </g>
     </g>
     <g id="text_26">
      <text style="font: 7px 'Arial'; text-anchor: middle" x="501.373278" y="155.907809" transform="rotate(-0 501.373278 155.907809)">25</text>
     </g>
    </g>
    <g id="text_27">
     <text style="font: 8px 'Arial'; text-anchor: middle" x="403.903204" y="167.025309" transform="rotate(-0 403.903204 167.025309)">Weeks after new outbreak</text>
    </g>
   </g>
   <g id="matplotlib.axis_6">
    <g id="ytick_14">
     <g id="line2d_30">
      <g>
       <use xlink:href="#m000324c50c" x="296.686122" y="137.964702" style="stroke: #000000; stroke-width: 0.8"/>
      </g>
     </g>
     <g id="text_28">
      <text style="font: 7px 'Arial'; text-anchor: end" x="289.686122" y="140.469937" transform="rotate(-0 289.686122 140.469937)">0.0</text>
     </g>
    </g>
    <g id="ytick_15">
     <g id="line2d_31">
      <g>
       <use xlink:href="#m000324c50c" x="296.686122" y="114.420996" style="stroke: #000000; stroke-width: 0.8"/>
      </g>
     </g>
     <g id="text_29">
      <text style="font: 7px 'Arial'; text-anchor: end" x="289.686122" y="116.92623" transform="rotate(-0 289.686122 116.92623)">0.5</text>
     </g>
    </g>
    <g id="ytick_16">
     <g id="line2d_32">
      <g>
       <use xlink:href="#m000324c50c" x="296.686122" y="90.87729" style="stroke: #000000; stroke-width: 0.8"/>
      </g>
     </g>
     <g id="text_30">
      <text style="font: 7px 'Arial'; text-anchor: end" x="289.686122" y="93.382524" transform="rotate(-0 289.686122 93.382524)">1.0</text>
     </g>
    </g>
    <g id="ytick_17">
     <g id="line2d_33">
      <g>
       <use xlink:href="#m000324c50c" x="296.686122" y="67.333584" style="stroke: #000000; stroke-width: 0.8"/>
      </g>
     </g>
     <g id="text_31">
      <text style="font: 7px 'Arial'; text-anchor: end" x="289.686122" y="69.838818" transform="rotate(-0 289.686122 69.838818)">1.5</text>
     </g>
    </g>
    <g id="ytick_18">
     <g id="line2d_34">
      <g>
       <use xlink:href="#m000324c50c" x="296.686122" y="43.789877" style="stroke: #000000; stroke-width: 0.8"/>
      </g>
     </g>
     <g id="text_32">
      <text style="font: 7px 'Arial'; text-anchor: end" x="289.686122" y="46.295112" transform="rotate(-0 289.686122 46.295112)">2.0</text>
     </g>
    </g>
    <g id="ytick_19">
     <g id="line2d_35">
      <g>
       <use xlink:href="#m000324c50c" x="296.686122" y="20.246171" style="stroke: #000000; stroke-width: 0.8"/>
      </g>
     </g>
     <g id="text_33">
      <text style="font: 7px 'Arial'; text-anchor: end" x="289.686122" y="22.751405" transform="rotate(-0 289.686122 22.751405)">2.5</text>
     </g>
    </g>
    <g id="text_34">
     <!-- $R_t$ -->
     <g transform="translate(274.366122 82.638324) rotate(-90)">
      <text>
       <tspan style="font: oblique 8px 'DejaVu Sans'" x="0" y="-0.171875">R</tspan>
       <tspan style="font: oblique 5.6px 'DejaVu Sans'" x="5.558594" y="1.140625">t</tspan>
      </text>
     </g>
    </g>
   </g>
   <g id="line2d_36">
    <path d="M 306.433129 66.535849 
L 314.230735 83.014685 
L 322.028341 85.356649 
L 329.825947 84.297956 
L 337.623553 84.031044 
L 345.421159 84.804045 
L 353.218765 85.918793 
L 361.016371 86.97174 
L 368.813977 87.93719 
L 376.611583 88.869583 
L 384.409189 89.909053 
L 392.206795 91.095908 
L 400.004401 92.424804 
L 407.802007 93.848998 
L 415.599613 95.385988 
L 423.397219 96.970809 
L 431.194825 98.615893 
L 438.992431 100.208073 
L 446.790037 101.776082 
L 454.587643 103.23024 
L 462.385248 104.587901 
L 470.182854 105.850903 
L 477.98046 106.983472 
L 485.778066 108.000067 
L 493.575672 108.890626 
L 501.373278 109.681546 
" clip-path="url(#p425cc513be)" style="fill: none; stroke-dasharray: 5.55,2.4; stroke-dashoffset: 0; stroke: #ff7f50; stroke-width: 1.5"/>
   </g>
   <g id="line2d_37">
    <path d="M 306.433129 74.972212 
L 314.230735 92.143303 
L 322.028341 102.67296 
L 329.825947 108.280013 
L 337.623553 110.475933 
L 345.421159 111.9739 
L 353.218765 113.711141 
L 361.016371 115.832052 
L 368.813977 118.067651 
L 376.611583 120.30258 
L 384.409189 122.46924 
L 392.206795 124.416968 
L 400.004401 126.217958 
L 407.802007 127.848529 
L 415.599613 129.289192 
L 423.397219 130.529162 
L 431.194825 131.637139 
L 438.992431 132.570723 
L 446.790037 133.399506 
L 454.587643 134.043227 
L 462.385248 134.589165 
L 470.182854 135.09383 
L 477.98046 135.518678 
L 485.778066 135.856049 
L 493.575672 136.135749 
L 501.373278 136.385404 
" clip-path="url(#p425cc513be)" style="fill: none; stroke-dasharray: 5.55,2.4; stroke-dashoffset: 0; stroke: #add8e6; stroke-width: 1.5"/>
   </g>
   <g id="line2d_38">
    <path d="M 306.433129 103.606476 
L 314.230735 110.230534 
L 322.028341 115.76998 
L 329.825947 120.297393 
L 337.623553 123.031034 
L 345.421159 125.288504 
L 353.218765 127.636155 
L 361.016371 129.911935 
L 368.813977 131.854174 
L 376.611583 133.463556 
L 384.409189 134.640345 
L 392.206795 135.554 
L 400.004401 136.247687 
L 407.802007 136.710857 
L 415.599613 137.059262 
L 423.397219 137.323245 
L 431.194825 137.496331 
L 438.992431 137.621882 
L 446.790037 137.704278 
L 454.587643 137.777455 
L 462.385248 137.824803 
L 470.182854 137.864129 
L 477.98046 137.889264 
L 485.778066 137.904397 
L 493.575672 137.920667 
L 501.373278 137.928404 
" clip-path="url(#p425cc513be)" style="fill: none; stroke-dasharray: 5.55,2.4; stroke-dashoffset: 0; stroke: #228b22; stroke-width: 1.5"/>
   </g>
   <g id="line2d_39">
    <path d="M 296.686122 90.87729 
L 511.120286 90.87729 
" clip-path="url(#p425cc513be)" style="fill: none; stroke-dasharray: 5.55,2.4; stroke-dashoffset: 0; stroke: #000000; stroke-width: 1.5"/>
   </g>
   <g id="patch_9">
    <path d="M 296.686122 143.89734 
L 296.686122 13.379307 
" style="fill: none; stroke: #000000; stroke-width: 0.8; stroke-linejoin: miter; stroke-linecap: square"/>
   </g>
   <g id="patch_10">
    <path d="M 296.686122 143.89734 
L 511.120286 143.89734 
" style="fill: none; stroke: #000000; stroke-width: 0.8; stroke-linejoin: miter; stroke-linecap: square"/>
   </g>
   <g id="legend_1">
    <g id="patch_11">
     <path d="M 393.467786 26.408057 
L 409.467786 26.408057 
L 409.467786 20.808057 
L 393.467786 20.808057 
z
" style="fill: #ff7f50; fill-opacity: 0.5; stroke: #ff7f50; stroke-opacity: 0.5; stroke-linejoin: miter"/>
    </g>
    <g id="text_35">
     <text style="font: 8px 'Arial'; text-anchor: start" x="415.867786" y="26.408057" transform="rotate(-0 415.867786 26.408057)">Only vaccination</text>
    </g>
    <g id="patch_12">
     <path d="M 393.467786 37.920557 
L 409.467786 37.920557 
L 409.467786 32.320557 
L 393.467786 32.320557 
z
" style="fill: #add8e6; fill-opacity: 0.7; stroke: #add8e6; stroke-opacity: 0.7; stroke-linejoin: miter"/>
    </g>
    <g id="text_36">
     <text style="font: 8px 'Arial'; text-anchor: start" x="415.867786" y="37.920557" transform="rotate(-0 415.867786 37.920557)">Only infection</text>
    </g>
    <g id="patch_13">
     <path d="M 393.467786 49.330557 
L 409.467786 49.330557 
L 409.467786 43.730557 
L 393.467786 43.730557 
z
" style="fill: #228b22; fill-opacity: 0.5; stroke: #228b22; stroke-opacity: 0.5; stroke-linejoin: miter"/>
    </g>
    <g id="text_37">
     <text style="font: 8px 'Arial'; text-anchor: start" x="415.867786" y="49.330557" transform="rotate(-0 415.867786 49.330557)">Infection and vaccination</text>
    </g>
   </g>
  </g>
  <g id="axes_4">
   <g id="patch_14">
    <path d="M 43.957815 307.391476 
L 258.39198 307.391476 
L 258.39198 176.873443 
L 43.957815 176.873443 
z
" style="fill: #ffffff"/>
   </g>
   <g id="matplotlib.axis_7">
    <g id="xtick_12">
     <g id="line2d_40">
      <g>
       <use xlink:href="#m890cd8d715" x="75.364839" y="307.391476" style="stroke: #000000; stroke-width: 0.8"/>
      </g>
     </g>
     <g id="text_38">
      <text style="font: 7px 'Arial'; text-anchor: middle" x="75.364839" y="319.401945" transform="rotate(-0 75.364839 319.401945)">20</text>
     </g>
    </g>
    <g id="xtick_13">
     <g id="line2d_41">
      <g>
       <use xlink:href="#m890cd8d715" x="118.684873" y="307.391476" style="stroke: #000000; stroke-width: 0.8"/>
      </g>
     </g>
     <g id="text_39">
      <text style="font: 7px 'Arial'; text-anchor: middle" x="118.684873" y="319.401945" transform="rotate(-0 118.684873 319.401945)">40</text>
     </g>
    </g>
    <g id="xtick_14">
     <g id="line2d_42">
      <g>
       <use xlink:href="#m890cd8d715" x="162.004906" y="307.391476" style="stroke: #000000; stroke-width: 0.8"/>
      </g>
     </g>
     <g id="text_40">
      <text style="font: 7px 'Arial'; text-anchor: middle" x="162.004906" y="319.401945" transform="rotate(-0 162.004906 319.401945)">60</text>
     </g>
    </g>
    <g id="xtick_15">
     <g id="line2d_43">
      <g>
       <use xlink:href="#m890cd8d715" x="205.324939" y="307.391476" style="stroke: #000000; stroke-width: 0.8"/>
      </g>
     </g>
     <g id="text_41">
      <text style="font: 7px 'Arial'; text-anchor: middle" x="205.324939" y="319.401945" transform="rotate(-0 205.324939 319.401945)">80</text>
     </g>
    </g>
    <g id="xtick_16">
     <g id="line2d_44">
      <g>
       <use xlink:href="#m890cd8d715" x="248.644972" y="307.391476" style="stroke: #000000; stroke-width: 0.8"/>
      </g>
     </g>
     <g id="text_42">
      <text style="font: 7px 'Arial'; text-anchor: middle" x="248.644972" y="319.401945" transform="rotate(-0 248.644972 319.401945)">100</text>
     </g>
    </g>
    <g id="text_43">
     <text style="font: 8px 'Arial'; text-anchor: middle" x="151.174897" y="330.616945" transform="rotate(-0 151.174897 330.616945)">Percentage of population permuted</text>
    </g>
   </g>
   <g id="matplotlib.axis_8">
    <g id="ytick_20">
     <g id="line2d_45">
      <g>
       <use xlink:href="#m000324c50c" x="43.957815" y="301.617099" style="stroke: #000000; stroke-width: 0.8"/>
      </g>
     </g>
     <g id="text_44">
      <text style="font: 7px 'Arial'; text-anchor: end" x="36.957815" y="304.122334" transform="rotate(-0 36.957815 304.122334)">0.0</text>
     </g>
    </g>
    <g id="ytick_21">
     <g id="line2d_46">
      <g>
       <use xlink:href="#m000324c50c" x="43.957815" y="279.236669" style="stroke: #000000; stroke-width: 0.8"/>
      </g>
     </g>
     <g id="text_45">
      <text style="font: 7px 'Arial'; text-anchor: end" x="36.957815" y="281.741903" transform="rotate(-0 36.957815 281.741903)">0.5</text>
     </g>
    </g>
    <g id="ytick_22">
     <g id="line2d_47">
      <g>
       <use xlink:href="#m000324c50c" x="43.957815" y="256.856238" style="stroke: #000000; stroke-width: 0.8"/>
      </g>
     </g>
     <g id="text_46">
      <text style="font: 7px 'Arial'; text-anchor: end" x="36.957815" y="259.361473" transform="rotate(-0 36.957815 259.361473)">1.0</text>
     </g>
    </g>
    <g id="ytick_23">
     <g id="line2d_48">
      <g>
       <use xlink:href="#m000324c50c" x="43.957815" y="234.475808" style="stroke: #000000; stroke-width: 0.8"/>
      </g>
     </g>
     <g id="text_47">
      <text style="font: 7px 'Arial'; text-anchor: end" x="36.957815" y="236.981042" transform="rotate(-0 36.957815 236.981042)">1.5</text>
     </g>
    </g>
    <g id="ytick_24">
     <g id="line2d_49">
      <g>
       <use xlink:href="#m000324c50c" x="43.957815" y="212.095377" style="stroke: #000000; stroke-width: 0.8"/>
      </g>
     </g>
     <g id="text_48">
      <text style="font: 7px 'Arial'; text-anchor: end" x="36.957815" y="214.600612" transform="rotate(-0 36.957815 214.600612)">2.0</text>
     </g>
    </g>
    <g id="ytick_25">
     <g id="line2d_50">
      <g>
       <use xlink:href="#m000324c50c" x="43.957815" y="189.714947" style="stroke: #000000; stroke-width: 0.8"/>
      </g>
     </g>
     <g id="text_49">
      <text style="font: 7px 'Arial'; text-anchor: end" x="36.957815" y="192.220181" transform="rotate(-0 36.957815 192.220181)">2.5</text>
     </g>
    </g>
    <g id="text_50">
     <text style="font: 8px 'Arial'; text-anchor: middle" x="21.544065" y="242.132459" transform="rotate(-90 21.544065 242.132459)">Outbreak size (% of population)</text>
    </g>
   </g>
   <g id="line2d_51">
    <path d="M 53.704823 300.452958 
L 75.364839 299.947196 
L 97.024856 299.367168 
L 118.684873 298.345335 
L 140.344889 296.242387 
L 162.004906 293.251588 
L 183.664922 288.57897 
L 205.324939 279.779622 
L 226.984955 265.834243 
L 248.644972 244.39731 
" clip-path="url(#p55248630b8)" style="fill: none; stroke: #1f77b4; stroke-width: 1.5; stroke-linecap: square"/>
   </g>
   <g id="LineCollection_1">
    <path d="M 53.704823 301.458838 
L 53.704823 297.690708 
" clip-path="url(#p55248630b8)" style="fill: none; stroke: #4682b4; stroke-width: 1.5"/>
    <path d="M 75.364839 301.451302 
L 75.364839 295.723744 
" clip-path="url(#p55248630b8)" style="fill: none; stroke: #4682b4; stroke-width: 1.5"/>
    <path d="M 97.024856 301.443765 
L 97.024856 293.606055 
" clip-path="url(#p55248630b8)" style="fill: none; stroke: #4682b4; stroke-width: 1.5"/>
    <path d="M 118.684873 301.436229 
L 118.684873 289.755027 
" clip-path="url(#p55248630b8)" style="fill: none; stroke: #4682b4; stroke-width: 1.5"/>
    <path d="M 140.344889 301.35333 
L 140.344889 282.286593 
" clip-path="url(#p55248630b8)" style="fill: none; stroke: #4682b4; stroke-width: 1.5"/>
    <path d="M 162.004906 301.270431 
L 162.004906 272.632644 
" clip-path="url(#p55248630b8)" style="fill: none; stroke: #4682b4; stroke-width: 1.5"/>
    <path d="M 183.664922 301.262895 
L 183.664922 258.643462 
" clip-path="url(#p55248630b8)" style="fill: none; stroke: #4682b4; stroke-width: 1.5"/>
    <path d="M 205.324939 301.179996 
L 205.324939 239.081216 
" clip-path="url(#p55248630b8)" style="fill: none; stroke: #4682b4; stroke-width: 1.5"/>
    <path d="M 226.984955 301.021735 
L 226.984955 213.446629 
" clip-path="url(#p55248630b8)" style="fill: none; stroke: #4682b4; stroke-width: 1.5"/>
    <path d="M 248.644972 300.788111 
L 248.644972 182.806081 
" clip-path="url(#p55248630b8)" style="fill: none; stroke: #4682b4; stroke-width: 1.5"/>
   </g>
   <g id="line2d_52">
    <defs>
     <path id="m384879999d" d="M 5 0 
L -5 -0 
" style="stroke: #4682b4"/>
    </defs>
    <g clip-path="url(#p55248630b8)">
     <use xlink:href="#m384879999d" x="53.704823" y="301.458838" style="fill: #4682b4; stroke: #4682b4"/>
     <use xlink:href="#m384879999d" x="75.364839" y="301.451302" style="fill: #4682b4; stroke: #4682b4"/>
     <use xlink:href="#m384879999d" x="97.024856" y="301.443765" style="fill: #4682b4; stroke: #4682b4"/>
     <use xlink:href="#m384879999d" x="118.684873" y="301.436229" style="fill: #4682b4; stroke: #4682b4"/>
     <use xlink:href="#m384879999d" x="140.344889" y="301.35333" style="fill: #4682b4; stroke: #4682b4"/>
     <use xlink:href="#m384879999d" x="162.004906" y="301.270431" style="fill: #4682b4; stroke: #4682b4"/>
     <use xlink:href="#m384879999d" x="183.664922" y="301.262895" style="fill: #4682b4; stroke: #4682b4"/>
     <use xlink:href="#m384879999d" x="205.324939" y="301.179996" style="fill: #4682b4; stroke: #4682b4"/>
     <use xlink:href="#m384879999d" x="226.984955" y="301.021735" style="fill: #4682b4; stroke: #4682b4"/>
     <use xlink:href="#m384879999d" x="248.644972" y="300.788111" style="fill: #4682b4; stroke: #4682b4"/>
    </g>
   </g>
   <g id="line2d_53">
    <g clip-path="url(#p55248630b8)">
     <use xlink:href="#m384879999d" x="53.704823" y="297.690708" style="fill: #4682b4; stroke: #4682b4"/>
     <use xlink:href="#m384879999d" x="75.364839" y="295.723744" style="fill: #4682b4; stroke: #4682b4"/>
     <use xlink:href="#m384879999d" x="97.024856" y="293.606055" style="fill: #4682b4; stroke: #4682b4"/>
     <use xlink:href="#m384879999d" x="118.684873" y="289.755027" style="fill: #4682b4; stroke: #4682b4"/>
     <use xlink:href="#m384879999d" x="140.344889" y="282.286593" style="fill: #4682b4; stroke: #4682b4"/>
     <use xlink:href="#m384879999d" x="162.004906" y="272.632644" style="fill: #4682b4; stroke: #4682b4"/>
     <use xlink:href="#m384879999d" x="183.664922" y="258.643462" style="fill: #4682b4; stroke: #4682b4"/>
     <use xlink:href="#m384879999d" x="205.324939" y="239.081216" style="fill: #4682b4; stroke: #4682b4"/>
     <use xlink:href="#m384879999d" x="226.984955" y="213.446629" style="fill: #4682b4; stroke: #4682b4"/>
     <use xlink:href="#m384879999d" x="248.644972" y="182.806081" style="fill: #4682b4; stroke: #4682b4"/>
    </g>
   </g>
   <g id="line2d_54">
    <defs>
     <path id="mfb32dc52cb" d="M 0 1.5 
C 0.397805 1.5 0.77937 1.341951 1.06066 1.06066 
C 1.341951 0.77937 1.5 0.397805 1.5 0 
C 1.5 -0.397805 1.341951 -0.77937 1.06066 -1.06066 
C 0.77937 -1.341951 0.397805 -1.5 0 -1.5 
C -0.397805 -1.5 -0.77937 -1.341951 -1.06066 -1.06066 
C -1.341951 -0.77937 -1.5 -0.397805 -1.5 0 
C -1.5 0.397805 -1.341951 0.77937 -1.06066 1.06066 
C -0.77937 1.341951 -0.397805 1.5 0 1.5 
z
" style="stroke: #4682b4"/>
    </defs>
    <g clip-path="url(#p55248630b8)">
     <use xlink:href="#mfb32dc52cb" x="53.704823" y="300.452958" style="fill: #4682b4; stroke: #4682b4"/>
     <use xlink:href="#mfb32dc52cb" x="75.364839" y="299.947196" style="fill: #4682b4; stroke: #4682b4"/>
     <use xlink:href="#mfb32dc52cb" x="97.024856" y="299.367168" style="fill: #4682b4; stroke: #4682b4"/>
     <use xlink:href="#mfb32dc52cb" x="118.684873" y="298.345335" style="fill: #4682b4; stroke: #4682b4"/>
     <use xlink:href="#mfb32dc52cb" x="140.344889" y="296.242387" style="fill: #4682b4; stroke: #4682b4"/>
     <use xlink:href="#mfb32dc52cb" x="162.004906" y="293.251588" style="fill: #4682b4; stroke: #4682b4"/>
     <use xlink:href="#mfb32dc52cb" x="183.664922" y="288.57897" style="fill: #4682b4; stroke: #4682b4"/>
     <use xlink:href="#mfb32dc52cb" x="205.324939" y="279.779622" style="fill: #4682b4; stroke: #4682b4"/>
     <use xlink:href="#mfb32dc52cb" x="226.984955" y="265.834243" style="fill: #4682b4; stroke: #4682b4"/>
     <use xlink:href="#mfb32dc52cb" x="248.644972" y="244.39731" style="fill: #4682b4; stroke: #4682b4"/>
    </g>
   </g>
   <g id="patch_15">
    <path d="M 43.957815 307.391476 
L 43.957815 176.873443 
" style="fill: none; stroke: #000000; stroke-width: 0.8; stroke-linejoin: miter; stroke-linecap: square"/>
   </g>
   <g id="patch_16">
    <path d="M 43.957815 307.391476 
L 258.39198 307.391476 
" style="fill: none; stroke: #000000; stroke-width: 0.8; stroke-linejoin: miter; stroke-linecap: square"/>
   </g>
   <g id="legend_2">
    <g id="LineCollection_2">
     <path d="M 59.157815 190.999693 
L 59.157815 182.999693 
" style="fill: none; stroke: #4682b4; stroke-width: 1.5"/>
    </g>
    <g id="line2d_55">
     <g>
      <use xlink:href="#m384879999d" x="59.157815" y="190.999693" style="fill: #4682b4; stroke: #4682b4"/>
     </g>
    </g>
    <g id="line2d_56">
     <g>
      <use xlink:href="#m384879999d" x="59.157815" y="182.999693" style="fill: #4682b4; stroke: #4682b4"/>
     </g>
    </g>
    <g id="line2d_57"/>
    <g id="line2d_58">
     <g>
      <use xlink:href="#mfb32dc52cb" x="59.157815" y="186.999693" style="fill: #4682b4; stroke: #4682b4"/>
     </g>
    </g>
    <g id="text_51">
     <text style="font: 8px 'Arial'; text-anchor: start" x="73.557815" y="189.799693" transform="rotate(-0 73.557815 189.799693)">Mean and 95%PI</text>
    </g>
   </g>
  </g>
  <g id="axes_5">
   <g id="patch_17">
    <path d="M 296.686122 307.391476 
L 511.120286 307.391476 
L 511.120286 176.873443 
L 296.686122 176.873443 
z
" style="fill: #ffffff"/>
   </g>
   <g id="matplotlib.axis_9">
    <g id="xtick_17">
     <g id="line2d_59">
      <g>
       <use xlink:href="#m890cd8d715" x="306.433129" y="307.391476" style="stroke: #000000; stroke-width: 0.8"/>
      </g>
     </g>
     <g id="text_52">
      <text style="font: 7px 'Arial'" transform="translate(306.336454 320.686936) rotate(-45)">1</text>
     </g>
    </g>
    <g id="xtick_18">
     <g id="line2d_60">
      <g>
       <use xlink:href="#m890cd8d715" x="317.263137" y="307.391476" style="stroke: #000000; stroke-width: 0.8"/>
      </g>
     </g>
     <g id="text_53">
      <text style="font: 7px 'Arial'" transform="translate(317.166463 320.686936) rotate(-45)">2</text>
     </g>
    </g>
    <g id="xtick_19">
     <g id="line2d_61">
      <g>
       <use xlink:href="#m890cd8d715" x="328.093146" y="307.391476" style="stroke: #000000; stroke-width: 0.8"/>
      </g>
     </g>
     <g id="text_54">
      <text style="font: 7px 'Arial'" transform="translate(327.996471 320.686936) rotate(-45)">3</text>
     </g>
    </g>
    <g id="xtick_20">
     <g id="line2d_62">
      <g>
       <use xlink:href="#m890cd8d715" x="338.923154" y="307.391476" style="stroke: #000000; stroke-width: 0.8"/>
      </g>
     </g>
     <g id="text_55">
      <text style="font: 7px 'Arial'" transform="translate(338.826479 320.686936) rotate(-45)">4</text>
     </g>
    </g>
    <g id="xtick_21">
     <g id="line2d_63">
      <g>
       <use xlink:href="#m890cd8d715" x="349.753162" y="307.391476" style="stroke: #000000; stroke-width: 0.8"/>
      </g>
     </g>
     <g id="text_56">
      <text style="font: 7px 'Arial'" transform="translate(349.656488 320.686936) rotate(-45)">5</text>
     </g>
    </g>
    <g id="xtick_22">
     <g id="line2d_64">
      <g>
       <use xlink:href="#m890cd8d715" x="360.583171" y="307.391476" style="stroke: #000000; stroke-width: 0.8"/>
      </g>
     </g>
     <g id="text_57">
      <text style="font: 7px 'Arial'" transform="translate(360.486496 320.686936) rotate(-45)">6</text>
     </g>
    </g>
    <g id="xtick_23">
     <g id="line2d_65">
      <g>
       <use xlink:href="#m890cd8d715" x="371.413179" y="307.391476" style="stroke: #000000; stroke-width: 0.8"/>
      </g>
     </g>
     <g id="text_58">
      <text style="font: 7px 'Arial'" transform="translate(371.316504 320.686936) rotate(-45)">7</text>
     </g>
    </g>
    <g id="xtick_24">
     <g id="line2d_66">
      <g>
       <use xlink:href="#m890cd8d715" x="382.243187" y="307.391476" style="stroke: #000000; stroke-width: 0.8"/>
      </g>
     </g>
     <g id="text_59">
      <text style="font: 7px 'Arial'" transform="translate(382.146512 320.686936) rotate(-45)">8</text>
     </g>
    </g>
    <g id="xtick_25">
     <g id="line2d_67">
      <g>
       <use xlink:href="#m890cd8d715" x="393.073195" y="307.391476" style="stroke: #000000; stroke-width: 0.8"/>
      </g>
     </g>
     <g id="text_60">
      <text style="font: 7px 'Arial'" transform="translate(392.976521 320.686936) rotate(-45)">9</text>
     </g>
    </g>
    <g id="xtick_26">
     <g id="line2d_68">
      <g>
       <use xlink:href="#m890cd8d715" x="403.903204" y="307.391476" style="stroke: #000000; stroke-width: 0.8"/>
      </g>
     </g>
     <g id="text_61">
      <text style="font: 7px 'Arial'" transform="translate(402.430267 323.43946) rotate(-45)">10</text>
     </g>
    </g>
    <g id="xtick_27">
     <g id="line2d_69">
      <g>
       <use xlink:href="#m890cd8d715" x="414.733212" y="307.391476" style="stroke: #000000; stroke-width: 0.8"/>
      </g>
     </g>
     <g id="text_62">
      <text style="font: 7px 'Arial'" transform="translate(413.260275 323.43946) rotate(-45)">20</text>
     </g>
    </g>
    <g id="xtick_28">
     <g id="line2d_70">
      <g>
       <use xlink:href="#m890cd8d715" x="425.56322" y="307.391476" style="stroke: #000000; stroke-width: 0.8"/>
      </g>
     </g>
     <g id="text_63">
      <text style="font: 7px 'Arial'" transform="translate(424.090284 323.43946) rotate(-45)">30</text>
     </g>
    </g>
    <g id="xtick_29">
     <g id="line2d_71">
      <g>
       <use xlink:href="#m890cd8d715" x="436.393229" y="307.391476" style="stroke: #000000; stroke-width: 0.8"/>
      </g>
     </g>
     <g id="text_64">
      <text style="font: 7px 'Arial'" transform="translate(434.920292 323.43946) rotate(-45)">40</text>
     </g>
    </g>
    <g id="xtick_30">
     <g id="line2d_72">
      <g>
       <use xlink:href="#m890cd8d715" x="447.223237" y="307.391476" style="stroke: #000000; stroke-width: 0.8"/>
      </g>
     </g>
     <g id="text_65">
      <text style="font: 7px 'Arial'" transform="translate(445.7503 323.43946) rotate(-45)">50</text>
     </g>
    </g>
    <g id="xtick_31">
     <g id="line2d_73">
      <g>
       <use xlink:href="#m890cd8d715" x="458.053245" y="307.391476" style="stroke: #000000; stroke-width: 0.8"/>
      </g>
     </g>
     <g id="text_66">
      <text style="font: 7px 'Arial'" transform="translate(456.580309 323.43946) rotate(-45)">60</text>
     </g>
    </g>
    <g id="xtick_32">
     <g id="line2d_74">
      <g>
       <use xlink:href="#m890cd8d715" x="468.883253" y="307.391476" style="stroke: #000000; stroke-width: 0.8"/>
      </g>
     </g>
     <g id="text_67">
      <text style="font: 7px 'Arial'" transform="translate(467.410317 323.43946) rotate(-45)">70</text>
     </g>
    </g>
    <g id="xtick_33">
     <g id="line2d_75">
      <g>
       <use xlink:href="#m890cd8d715" x="479.713262" y="307.391476" style="stroke: #000000; stroke-width: 0.8"/>
      </g>
     </g>
     <g id="text_68">
      <text style="font: 7px 'Arial'" transform="translate(478.240325 323.43946) rotate(-45)">80</text>
     </g>
    </g>
    <g id="xtick_34">
     <g id="line2d_76">
      <g>
       <use xlink:href="#m890cd8d715" x="490.54327" y="307.391476" style="stroke: #000000; stroke-width: 0.8"/>
      </g>
     </g>
     <g id="text_69">
      <text style="font: 7px 'Arial'" transform="translate(489.070333 323.43946) rotate(-45)">90</text>
     </g>
    </g>
    <g id="xtick_35">
     <g id="line2d_77">
      <g>
       <use xlink:href="#m890cd8d715" x="501.373278" y="307.391476" style="stroke: #000000; stroke-width: 0.8"/>
      </g>
     </g>
     <g id="text_70">
      <text style="font: 7px 'Arial'" transform="translate(498.52408 326.191983) rotate(-45)">100</text>
     </g>
    </g>
    <g id="text_71">
     <text style="font: 8px 'Arial'; text-anchor: middle" x="403.903204" y="336.999495" transform="rotate(-0 403.903204 336.999495)">Percentage of population replaced</text>
    </g>
   </g>
   <g id="matplotlib.axis_10">
    <g id="ytick_26">
     <g id="line2d_78">
      <g>
       <use xlink:href="#m000324c50c" x="296.686122" y="301.473587" style="stroke: #000000; stroke-width: 0.8"/>
      </g>
     </g>
     <g id="text_72">
      <text style="font: 7px 'Arial'; text-anchor: end" x="289.686122" y="303.978822" transform="rotate(-0 289.686122 303.978822)">0</text>
     </g>
    </g>
    <g id="ytick_27">
     <g id="line2d_79">
      <g>
       <use xlink:href="#m000324c50c" x="296.686122" y="283.952946" style="stroke: #000000; stroke-width: 0.8"/>
      </g>
     </g>
     <g id="text_73">
      <text style="font: 7px 'Arial'; text-anchor: end" x="289.686122" y="286.45818" transform="rotate(-0 289.686122 286.45818)">2</text>
     </g>
    </g>
    <g id="ytick_28">
     <g id="line2d_80">
      <g>
       <use xlink:href="#m000324c50c" x="296.686122" y="266.432305" style="stroke: #000000; stroke-width: 0.8"/>
      </g>
     </g>
     <g id="text_74">
      <text style="font: 7px 'Arial'; text-anchor: end" x="289.686122" y="268.937539" transform="rotate(-0 289.686122 268.937539)">4</text>
     </g>
    </g>
    <g id="ytick_29">
     <g id="line2d_81">
      <g>
       <use xlink:href="#m000324c50c" x="296.686122" y="248.911663" style="stroke: #000000; stroke-width: 0.8"/>
      </g>
     </g>
     <g id="text_75">
      <text style="font: 7px 'Arial'; text-anchor: end" x="289.686122" y="251.416898" transform="rotate(-0 289.686122 251.416898)">6</text>
     </g>
    </g>
    <g id="ytick_30">
     <g id="line2d_82">
      <g>
       <use xlink:href="#m000324c50c" x="296.686122" y="231.391022" style="stroke: #000000; stroke-width: 0.8"/>
      </g>
     </g>
     <g id="text_76">
      <text style="font: 7px 'Arial'; text-anchor: end" x="289.686122" y="233.896256" transform="rotate(-0 289.686122 233.896256)">8</text>
     </g>
    </g>
    <g id="ytick_31">
     <g id="line2d_83">
      <g>
       <use xlink:href="#m000324c50c" x="296.686122" y="213.870381" style="stroke: #000000; stroke-width: 0.8"/>
      </g>
     </g>
     <g id="text_77">
      <text style="font: 7px 'Arial'; text-anchor: end" x="289.686122" y="216.375615" transform="rotate(-0 289.686122 216.375615)">10</text>
     </g>
    </g>
    <g id="ytick_32">
     <g id="line2d_84">
      <g>
       <use xlink:href="#m000324c50c" x="296.686122" y="196.349739" style="stroke: #000000; stroke-width: 0.8"/>
      </g>
     </g>
     <g id="text_78">
      <text style="font: 7px 'Arial'; text-anchor: end" x="289.686122" y="198.854974" transform="rotate(-0 289.686122 198.854974)">12</text>
     </g>
    </g>
    <g id="ytick_33">
     <g id="line2d_85">
      <g>
       <use xlink:href="#m000324c50c" x="296.686122" y="178.829098" style="stroke: #000000; stroke-width: 0.8"/>
      </g>
     </g>
     <g id="text_79">
      <text style="font: 7px 'Arial'; text-anchor: end" x="289.686122" y="181.334332" transform="rotate(-0 289.686122 181.334332)">14</text>
     </g>
    </g>
    <g id="text_80">
     <text style="font: 8px 'Arial'; text-anchor: middle" x="276.217059" y="242.132459" transform="rotate(-90 276.217059 242.132459)">Outbreak size (% of population)</text>
    </g>
   </g>
   <g id="line2d_86">
    <path d="M 306.433129 301.293037 
L 317.263137 301.280951 
L 328.093146 301.278188 
L 338.923154 301.257798 
L 349.753162 301.216519 
L 360.583171 301.201656 
L 371.413179 301.216535 
L 382.243187 301.190161 
L 393.073195 301.177466 
L 403.903204 301.173662 
L 414.733212 300.70725 
L 425.56322 299.328921 
L 436.393229 293.683054 
L 447.223237 278.992132 
L 458.053245 258.455058 
L 468.883253 239.429216 
L 479.713262 222.010008 
L 490.54327 205.829546 
L 501.373278 190.047917 
" clip-path="url(#pfac97c9466)" style="fill: none; stroke: #1f77b4; stroke-width: 1.5; stroke-linecap: square"/>
   </g>
   <g id="LineCollection_3">
    <path d="M 306.433129 301.458838 
L 306.433129 300.883607 
" clip-path="url(#pfac97c9466)" style="fill: none; stroke: #4682b4; stroke-width: 1.5"/>
    <path d="M 317.263137 301.458838 
L 317.263137 300.839359 
" clip-path="url(#pfac97c9466)" style="fill: none; stroke: #4682b4; stroke-width: 1.5"/>
    <path d="M 328.093146 301.458838 
L 328.093146 300.839359 
" clip-path="url(#pfac97c9466)" style="fill: none; stroke: #4682b4; stroke-width: 1.5"/>
    <path d="M 338.923154 301.458838 
L 338.923154 300.721363 
" clip-path="url(#pfac97c9466)" style="fill: none; stroke: #4682b4; stroke-width: 1.5"/>
    <path d="M 349.753162 301.458838 
L 349.753162 300.618116 
" clip-path="url(#pfac97c9466)" style="fill: none; stroke: #4682b4; stroke-width: 1.5"/>
    <path d="M 360.583171 301.444088 
L 360.583171 300.603367 
" clip-path="url(#pfac97c9466)" style="fill: none; stroke: #4682b4; stroke-width: 1.5"/>
    <path d="M 371.413179 301.444088 
L 371.413179 300.603367 
" clip-path="url(#pfac97c9466)" style="fill: none; stroke: #4682b4; stroke-width: 1.5"/>
    <path d="M 382.243187 301.444088 
L 382.243187 300.51487 
" clip-path="url(#pfac97c9466)" style="fill: none; stroke: #4682b4; stroke-width: 1.5"/>
    <path d="M 393.073195 301.444088 
L 393.073195 300.411623 
" clip-path="url(#pfac97c9466)" style="fill: none; stroke: #4682b4; stroke-width: 1.5"/>
    <path d="M 403.903204 301.444088 
L 403.903204 300.367375 
" clip-path="url(#pfac97c9466)" style="fill: none; stroke: #4682b4; stroke-width: 1.5"/>
    <path d="M 414.733212 301.429339 
L 414.733212 298.390941 
" clip-path="url(#pfac97c9466)" style="fill: none; stroke: #4682b4; stroke-width: 1.5"/>
    <path d="M 425.56322 301.414589 
L 425.56322 292.948374 
" clip-path="url(#pfac97c9466)" style="fill: none; stroke: #4682b4; stroke-width: 1.5"/>
    <path d="M 436.393229 301.38509 
L 436.393229 277.807639 
" clip-path="url(#pfac97c9466)" style="fill: none; stroke: #4682b4; stroke-width: 1.5"/>
    <path d="M 447.223237 301.267094 
L 447.223237 259.540746 
" clip-path="url(#pfac97c9466)" style="fill: none; stroke: #4682b4; stroke-width: 1.5"/>
    <path d="M 458.053245 293.538354 
L 458.053245 242.505069 
" clip-path="url(#pfac97c9466)" style="fill: none; stroke: #4682b4; stroke-width: 1.5"/>
    <path d="M 468.883253 258.671263 
L 468.883253 227.275837 
" clip-path="url(#pfac97c9466)" style="fill: none; stroke: #4682b4; stroke-width: 1.5"/>
    <path d="M 479.713262 233.596368 
L 479.713262 213.160561 
" clip-path="url(#pfac97c9466)" style="fill: none; stroke: #4682b4; stroke-width: 1.5"/>
    <path d="M 490.54327 216.258694 
L 490.54327 198.359802 
" clip-path="url(#pfac97c9466)" style="fill: none; stroke: #4682b4; stroke-width: 1.5"/>
    <path d="M 501.373278 200.837719 
L 501.373278 182.806081 
" clip-path="url(#pfac97c9466)" style="fill: none; stroke: #4682b4; stroke-width: 1.5"/>
   </g>
   <g id="line2d_87">
    <g clip-path="url(#pfac97c9466)">
     <use xlink:href="#m384879999d" x="306.433129" y="301.458838" style="fill: #4682b4; stroke: #4682b4"/>
     <use xlink:href="#m384879999d" x="317.263137" y="301.458838" style="fill: #4682b4; stroke: #4682b4"/>
     <use xlink:href="#m384879999d" x="328.093146" y="301.458838" style="fill: #4682b4; stroke: #4682b4"/>
     <use xlink:href="#m384879999d" x="338.923154" y="301.458838" style="fill: #4682b4; stroke: #4682b4"/>
     <use xlink:href="#m384879999d" x="349.753162" y="301.458838" style="fill: #4682b4; stroke: #4682b4"/>
     <use xlink:href="#m384879999d" x="360.583171" y="301.444088" style="fill: #4682b4; stroke: #4682b4"/>
     <use xlink:href="#m384879999d" x="371.413179" y="301.444088" style="fill: #4682b4; stroke: #4682b4"/>
     <use xlink:href="#m384879999d" x="382.243187" y="301.444088" style="fill: #4682b4; stroke: #4682b4"/>
     <use xlink:href="#m384879999d" x="393.073195" y="301.444088" style="fill: #4682b4; stroke: #4682b4"/>
     <use xlink:href="#m384879999d" x="403.903204" y="301.444088" style="fill: #4682b4; stroke: #4682b4"/>
     <use xlink:href="#m384879999d" x="414.733212" y="301.429339" style="fill: #4682b4; stroke: #4682b4"/>
     <use xlink:href="#m384879999d" x="425.56322" y="301.414589" style="fill: #4682b4; stroke: #4682b4"/>
     <use xlink:href="#m384879999d" x="436.393229" y="301.38509" style="fill: #4682b4; stroke: #4682b4"/>
     <use xlink:href="#m384879999d" x="447.223237" y="301.267094" style="fill: #4682b4; stroke: #4682b4"/>
     <use xlink:href="#m384879999d" x="458.053245" y="293.538354" style="fill: #4682b4; stroke: #4682b4"/>
     <use xlink:href="#m384879999d" x="468.883253" y="258.671263" style="fill: #4682b4; stroke: #4682b4"/>
     <use xlink:href="#m384879999d" x="479.713262" y="233.596368" style="fill: #4682b4; stroke: #4682b4"/>
     <use xlink:href="#m384879999d" x="490.54327" y="216.258694" style="fill: #4682b4; stroke: #4682b4"/>
     <use xlink:href="#m384879999d" x="501.373278" y="200.837719" style="fill: #4682b4; stroke: #4682b4"/>
    </g>
   </g>
   <g id="line2d_88">
    <g clip-path="url(#pfac97c9466)">
     <use xlink:href="#m384879999d" x="306.433129" y="300.883607" style="fill: #4682b4; stroke: #4682b4"/>
     <use xlink:href="#m384879999d" x="317.263137" y="300.839359" style="fill: #4682b4; stroke: #4682b4"/>
     <use xlink:href="#m384879999d" x="328.093146" y="300.839359" style="fill: #4682b4; stroke: #4682b4"/>
     <use xlink:href="#m384879999d" x="338.923154" y="300.721363" style="fill: #4682b4; stroke: #4682b4"/>
     <use xlink:href="#m384879999d" x="349.753162" y="300.618116" style="fill: #4682b4; stroke: #4682b4"/>
     <use xlink:href="#m384879999d" x="360.583171" y="300.603367" style="fill: #4682b4; stroke: #4682b4"/>
     <use xlink:href="#m384879999d" x="371.413179" y="300.603367" style="fill: #4682b4; stroke: #4682b4"/>
     <use xlink:href="#m384879999d" x="382.243187" y="300.51487" style="fill: #4682b4; stroke: #4682b4"/>
     <use xlink:href="#m384879999d" x="393.073195" y="300.411623" style="fill: #4682b4; stroke: #4682b4"/>
     <use xlink:href="#m384879999d" x="403.903204" y="300.367375" style="fill: #4682b4; stroke: #4682b4"/>
     <use xlink:href="#m384879999d" x="414.733212" y="298.390941" style="fill: #4682b4; stroke: #4682b4"/>
     <use xlink:href="#m384879999d" x="425.56322" y="292.948374" style="fill: #4682b4; stroke: #4682b4"/>
     <use xlink:href="#m384879999d" x="436.393229" y="277.807639" style="fill: #4682b4; stroke: #4682b4"/>
     <use xlink:href="#m384879999d" x="447.223237" y="259.540746" style="fill: #4682b4; stroke: #4682b4"/>
     <use xlink:href="#m384879999d" x="458.053245" y="242.505069" style="fill: #4682b4; stroke: #4682b4"/>
     <use xlink:href="#m384879999d" x="468.883253" y="227.275837" style="fill: #4682b4; stroke: #4682b4"/>
     <use xlink:href="#m384879999d" x="479.713262" y="213.160561" style="fill: #4682b4; stroke: #4682b4"/>
     <use xlink:href="#m384879999d" x="490.54327" y="198.359802" style="fill: #4682b4; stroke: #4682b4"/>
     <use xlink:href="#m384879999d" x="501.373278" y="182.806081" style="fill: #4682b4; stroke: #4682b4"/>
    </g>
   </g>
   <g id="line2d_89">
    <g clip-path="url(#pfac97c9466)">
     <use xlink:href="#mfb32dc52cb" x="306.433129" y="301.293037" style="fill: #4682b4; stroke: #4682b4"/>
     <use xlink:href="#mfb32dc52cb" x="317.263137" y="301.280951" style="fill: #4682b4; stroke: #4682b4"/>
     <use xlink:href="#mfb32dc52cb" x="328.093146" y="301.278188" style="fill: #4682b4; stroke: #4682b4"/>
     <use xlink:href="#mfb32dc52cb" x="338.923154" y="301.257798" style="fill: #4682b4; stroke: #4682b4"/>
     <use xlink:href="#mfb32dc52cb" x="349.753162" y="301.216519" style="fill: #4682b4; stroke: #4682b4"/>
     <use xlink:href="#mfb32dc52cb" x="360.583171" y="301.201656" style="fill: #4682b4; stroke: #4682b4"/>
     <use xlink:href="#mfb32dc52cb" x="371.413179" y="301.216535" style="fill: #4682b4; stroke: #4682b4"/>
     <use xlink:href="#mfb32dc52cb" x="382.243187" y="301.190161" style="fill: #4682b4; stroke: #4682b4"/>
     <use xlink:href="#mfb32dc52cb" x="393.073195" y="301.177466" style="fill: #4682b4; stroke: #4682b4"/>
     <use xlink:href="#mfb32dc52cb" x="403.903204" y="301.173662" style="fill: #4682b4; stroke: #4682b4"/>
     <use xlink:href="#mfb32dc52cb" x="414.733212" y="300.70725" style="fill: #4682b4; stroke: #4682b4"/>
     <use xlink:href="#mfb32dc52cb" x="425.56322" y="299.328921" style="fill: #4682b4; stroke: #4682b4"/>
     <use xlink:href="#mfb32dc52cb" x="436.393229" y="293.683054" style="fill: #4682b4; stroke: #4682b4"/>
     <use xlink:href="#mfb32dc52cb" x="447.223237" y="278.992132" style="fill: #4682b4; stroke: #4682b4"/>
     <use xlink:href="#mfb32dc52cb" x="458.053245" y="258.455058" style="fill: #4682b4; stroke: #4682b4"/>
     <use xlink:href="#mfb32dc52cb" x="468.883253" y="239.429216" style="fill: #4682b4; stroke: #4682b4"/>
     <use xlink:href="#mfb32dc52cb" x="479.713262" y="222.010008" style="fill: #4682b4; stroke: #4682b4"/>
     <use xlink:href="#mfb32dc52cb" x="490.54327" y="205.829546" style="fill: #4682b4; stroke: #4682b4"/>
     <use xlink:href="#mfb32dc52cb" x="501.373278" y="190.047917" style="fill: #4682b4; stroke: #4682b4"/>
    </g>
   </g>
   <g id="patch_18">
    <path d="M 296.686122 307.391476 
L 296.686122 176.873443 
" style="fill: none; stroke: #000000; stroke-width: 0.8; stroke-linejoin: miter; stroke-linecap: square"/>
   </g>
   <g id="patch_19">
    <path d="M 296.686122 307.391476 
L 511.120286 307.391476 
" style="fill: none; stroke: #000000; stroke-width: 0.8; stroke-linejoin: miter; stroke-linecap: square"/>
   </g>
   <g id="text_81">
    <g id="patch_20">
     <path d="M 7.2 16.33125 
L 12.760937 16.33125 
L 12.760937 7.2 
L 7.2 7.2 
z
" style="fill: #ffffff; stroke: #ffffff; stroke-linejoin: miter"/>
    </g>
    <text style="font: 700 10px 'Arial'; text-anchor: start" x="7.2" y="14.357812" transform="rotate(-0 7.2 14.357812)">a</text>
   </g>
   <g id="text_82">
    <g id="patch_21">
     <path d="M 258.087972 16.33125 
L 264.195785 16.33125 
L 264.195785 7.2 
L 258.087972 7.2 
z
" style="fill: #ffffff; stroke: #ffffff; stroke-linejoin: miter"/>
    </g>
    <text style="font: 700 10px 'Arial'; text-anchor: start" x="258.087972" y="14.357812" transform="rotate(-0 258.087972 14.357812)">b</text>
   </g>
   <g id="text_83">
    <g id="patch_22">
     <path d="M 7.2 186.004693 
L 12.760937 186.004693 
L 12.760937 176.873443 
L 7.2 176.873443 
z
" style="fill: #ffffff; stroke: #ffffff; stroke-linejoin: miter"/>
    </g>
    <text style="font: 700 10px 'Arial'; text-anchor: start" x="7.2" y="184.031255" transform="rotate(-0 7.2 184.031255)">c</text>
   </g>
   <g id="text_84">
    <g id="patch_23">
     <path d="M 258.087972 186.004693 
L 264.195785 186.004693 
L 264.195785 176.873443 
L 258.087972 176.873443 
z
" style="fill: #ffffff; stroke: #ffffff; stroke-linejoin: miter"/>
    </g>
    <text style="font: 700 10px 'Arial'; text-anchor: start" x="258.087972" y="184.031255" transform="rotate(-0 258.087972 184.031255)">d</text>
   </g>
  </g>
  <g id="axes_6">
   <g id="patch_24">
    <path d="M 340.097609 260.937417 
L 416.633042 260.937417 
L 416.633042 175.898047 
L 340.097609 175.898047 
z
" style="fill: #ffffff"/>
   </g>
   <g id="matplotlib.axis_11">
    <g id="xtick_36">
     <g id="line2d_90">
      <g>
       <use xlink:href="#m890cd8d715" x="374.499899" y="260.937417" style="stroke: #000000; stroke-width: 0.8"/>
      </g>
     </g>
     <g id="text_85">
      <text style="font: 7px 'Arial'; text-anchor: middle" x="374.499899" y="272.947886" transform="rotate(-0 374.499899 272.947886)">5</text>
     </g>
    </g>
    <g id="xtick_37">
     <g id="line2d_91">
      <g>
       <use xlink:href="#m890cd8d715" x="413.154158" y="260.937417" style="stroke: #000000; stroke-width: 0.8"/>
      </g>
     </g>
     <g id="text_86">
      <text style="font: 7px 'Arial'; text-anchor: middle" x="413.154158" y="272.947886" transform="rotate(-0 413.154158 272.947886)">10</text>
     </g>
    </g>
    <g id="text_87">
     <text style="font: 8px 'Arial'; text-anchor: middle" x="378.365325" y="284.162886" transform="rotate(-0 378.365325 284.162886)">% population replaced</text>
    </g>
   </g>
   <g id="matplotlib.axis_12">
    <g id="ytick_34">
     <g id="line2d_92">
      <g>
       <use xlink:href="#m000324c50c" x="340.097609" y="258.116701" style="stroke: #000000; stroke-width: 0.8"/>
      </g>
     </g>
     <g id="text_88">
      <text style="font: 7px 'Arial'; text-anchor: end" x="333.097609" y="260.621936" transform="rotate(-0 333.097609 260.621936)">0.000</text>
     </g>
    </g>
    <g id="ytick_35">
     <g id="line2d_93">
      <g>
       <use xlink:href="#m000324c50c" x="340.097609" y="242.604329" style="stroke: #000000; stroke-width: 0.8"/>
      </g>
     </g>
     <g id="text_89">
      <text style="font: 7px 'Arial'; text-anchor: end" x="333.097609" y="245.109564" transform="rotate(-0 333.097609 245.109564)">0.025</text>
     </g>
    </g>
    <g id="ytick_36">
     <g id="line2d_94">
      <g>
       <use xlink:href="#m000324c50c" x="340.097609" y="227.091957" style="stroke: #000000; stroke-width: 0.8"/>
      </g>
     </g>
     <g id="text_90">
      <text style="font: 7px 'Arial'; text-anchor: end" x="333.097609" y="229.597191" transform="rotate(-0 333.097609 229.597191)">0.050</text>
     </g>
    </g>
    <g id="ytick_37">
     <g id="line2d_95">
      <g>
       <use xlink:href="#m000324c50c" x="340.097609" y="211.579585" style="stroke: #000000; stroke-width: 0.8"/>
      </g>
     </g>
     <g id="text_91">
      <text style="font: 7px 'Arial'; text-anchor: end" x="333.097609" y="214.084819" transform="rotate(-0 333.097609 214.084819)">0.075</text>
     </g>
    </g>
    <g id="ytick_38">
     <g id="line2d_96">
      <g>
       <use xlink:href="#m000324c50c" x="340.097609" y="196.067213" style="stroke: #000000; stroke-width: 0.8"/>
      </g>
     </g>
     <g id="text_92">
      <text style="font: 7px 'Arial'; text-anchor: end" x="333.097609" y="198.572447" transform="rotate(-0 333.097609 198.572447)">0.100</text>
     </g>
    </g>
    <g id="ytick_39">
     <g id="line2d_97">
      <g>
       <use xlink:href="#m000324c50c" x="340.097609" y="180.554841" style="stroke: #000000; stroke-width: 0.8"/>
      </g>
     </g>
     <g id="text_93">
      <text style="font: 7px 'Arial'; text-anchor: end" x="333.097609" y="183.060075" transform="rotate(-0 333.097609 183.060075)">0.125</text>
     </g>
    </g>
    <g id="text_94">
     <text style="font: 8px 'Arial'; text-anchor: middle" x="309.898546" y="218.417732" transform="rotate(-90 309.898546 218.417732)">Outbreak size (%)</text>
    </g>
   </g>
   <g id="line2d_98">
    <path d="M 343.576492 245.328285 
L 351.307344 244.472208 
L 359.038196 244.276562 
L 366.769047 242.832306 
L 374.499899 239.908507 
L 382.230751 238.855761 
L 389.961603 239.909603 
L 397.692455 238.041545 
L 405.423307 237.142364 
L 413.154158 236.872931 
" clip-path="url(#pd1f7c1631f)" style="fill: none; stroke: #1f77b4; stroke-width: 1.5; stroke-linecap: square"/>
   </g>
   <g id="LineCollection_4">
    <path d="M 343.576492 257.071991 
L 343.576492 216.328313 
" clip-path="url(#pd1f7c1631f)" style="fill: none; stroke: #4682b4; stroke-width: 1.5"/>
    <path d="M 351.307344 257.071991 
L 351.307344 213.194184 
" clip-path="url(#pd1f7c1631f)" style="fill: none; stroke: #4682b4; stroke-width: 1.5"/>
    <path d="M 359.038196 257.071991 
L 359.038196 213.194184 
" clip-path="url(#pd1f7c1631f)" style="fill: none; stroke: #4682b4; stroke-width: 1.5"/>
    <path d="M 366.769047 257.071991 
L 366.769047 204.836506 
" clip-path="url(#pd1f7c1631f)" style="fill: none; stroke: #4682b4; stroke-width: 1.5"/>
    <path d="M 374.499899 257.071991 
L 374.499899 197.523538 
" clip-path="url(#pd1f7c1631f)" style="fill: none; stroke: #4682b4; stroke-width: 1.5"/>
    <path d="M 382.230751 256.027282 
L 382.230751 196.478829 
" clip-path="url(#pd1f7c1631f)" style="fill: none; stroke: #4682b4; stroke-width: 1.5"/>
    <path d="M 389.961603 256.027282 
L 389.961603 196.478829 
" clip-path="url(#pd1f7c1631f)" style="fill: none; stroke: #4682b4; stroke-width: 1.5"/>
    <path d="M 397.692455 256.027282 
L 397.692455 190.21057 
" clip-path="url(#pd1f7c1631f)" style="fill: none; stroke: #4682b4; stroke-width: 1.5"/>
    <path d="M 405.423307 256.027282 
L 405.423307 182.897602 
" clip-path="url(#pd1f7c1631f)" style="fill: none; stroke: #4682b4; stroke-width: 1.5"/>
    <path d="M 413.154158 256.027282 
L 413.154158 179.763473 
" clip-path="url(#pd1f7c1631f)" style="fill: none; stroke: #4682b4; stroke-width: 1.5"/>
   </g>
   <g id="line2d_99">
    <g clip-path="url(#pd1f7c1631f)">
     <use xlink:href="#m384879999d" x="343.576492" y="257.071991" style="fill: #4682b4; stroke: #4682b4"/>
     <use xlink:href="#m384879999d" x="351.307344" y="257.071991" style="fill: #4682b4; stroke: #4682b4"/>
     <use xlink:href="#m384879999d" x="359.038196" y="257.071991" style="fill: #4682b4; stroke: #4682b4"/>
     <use xlink:href="#m384879999d" x="366.769047" y="257.071991" style="fill: #4682b4; stroke: #4682b4"/>
     <use xlink:href="#m384879999d" x="374.499899" y="257.071991" style="fill: #4682b4; stroke: #4682b4"/>
     <use xlink:href="#m384879999d" x="382.230751" y="256.027282" style="fill: #4682b4; stroke: #4682b4"/>
     <use xlink:href="#m384879999d" x="389.961603" y="256.027282" style="fill: #4682b4; stroke: #4682b4"/>
     <use xlink:href="#m384879999d" x="397.692455" y="256.027282" style="fill: #4682b4; stroke: #4682b4"/>
     <use xlink:href="#m384879999d" x="405.423307" y="256.027282" style="fill: #4682b4; stroke: #4682b4"/>
     <use xlink:href="#m384879999d" x="413.154158" y="256.027282" style="fill: #4682b4; stroke: #4682b4"/>
    </g>
   </g>
   <g id="line2d_100">
    <g clip-path="url(#pd1f7c1631f)">
     <use xlink:href="#m384879999d" x="343.576492" y="216.328313" style="fill: #4682b4; stroke: #4682b4"/>
     <use xlink:href="#m384879999d" x="351.307344" y="213.194184" style="fill: #4682b4; stroke: #4682b4"/>
     <use xlink:href="#m384879999d" x="359.038196" y="213.194184" style="fill: #4682b4; stroke: #4682b4"/>
     <use xlink:href="#m384879999d" x="366.769047" y="204.836506" style="fill: #4682b4; stroke: #4682b4"/>
     <use xlink:href="#m384879999d" x="374.499899" y="197.523538" style="fill: #4682b4; stroke: #4682b4"/>
     <use xlink:href="#m384879999d" x="382.230751" y="196.478829" style="fill: #4682b4; stroke: #4682b4"/>
     <use xlink:href="#m384879999d" x="389.961603" y="196.478829" style="fill: #4682b4; stroke: #4682b4"/>
     <use xlink:href="#m384879999d" x="397.692455" y="190.21057" style="fill: #4682b4; stroke: #4682b4"/>
     <use xlink:href="#m384879999d" x="405.423307" y="182.897602" style="fill: #4682b4; stroke: #4682b4"/>
     <use xlink:href="#m384879999d" x="413.154158" y="179.763473" style="fill: #4682b4; stroke: #4682b4"/>
    </g>
   </g>
   <g id="line2d_101">
    <g clip-path="url(#pd1f7c1631f)">
     <use xlink:href="#mfb32dc52cb" x="343.576492" y="245.328285" style="fill: #4682b4; stroke: #4682b4"/>
     <use xlink:href="#mfb32dc52cb" x="351.307344" y="244.472208" style="fill: #4682b4; stroke: #4682b4"/>
     <use xlink:href="#mfb32dc52cb" x="359.038196" y="244.276562" style="fill: #4682b4; stroke: #4682b4"/>
     <use xlink:href="#mfb32dc52cb" x="366.769047" y="242.832306" style="fill: #4682b4; stroke: #4682b4"/>
     <use xlink:href="#mfb32dc52cb" x="374.499899" y="239.908507" style="fill: #4682b4; stroke: #4682b4"/>
     <use xlink:href="#mfb32dc52cb" x="382.230751" y="238.855761" style="fill: #4682b4; stroke: #4682b4"/>
     <use xlink:href="#mfb32dc52cb" x="389.961603" y="239.909603" style="fill: #4682b4; stroke: #4682b4"/>
     <use xlink:href="#mfb32dc52cb" x="397.692455" y="238.041545" style="fill: #4682b4; stroke: #4682b4"/>
     <use xlink:href="#mfb32dc52cb" x="405.423307" y="237.142364" style="fill: #4682b4; stroke: #4682b4"/>
     <use xlink:href="#mfb32dc52cb" x="413.154158" y="236.872931" style="fill: #4682b4; stroke: #4682b4"/>
    </g>
   </g>
   <g id="patch_25">
    <path d="M 340.097609 260.937417 
L 340.097609 175.898047 
" style="fill: none; stroke: #000000; stroke-width: 0.8; stroke-linejoin: miter; stroke-linecap: square"/>
   </g>
   <g id="patch_26">
    <path d="M 340.097609 260.937417 
L 416.633042 260.937417 
" style="fill: none; stroke: #000000; stroke-width: 0.8; stroke-linejoin: miter; stroke-linecap: square"/>
   </g>
  </g>
 </g>
 <defs>
  <clipPath id="p757a56ea4b">
   <rect x="43.957815" y="13.379307" width="214.434164" height="130.518033"/>
  </clipPath>
  <clipPath id="p57b454eee5">
   <rect x="84.979498" y="16.024032" width="102.047244" height="85.03937"/>
  </clipPath>
  <clipPath id="p425cc513be">
   <rect x="296.686122" y="13.379307" width="214.434164" height="130.518033"/>
  </clipPath>
  <clipPath id="p55248630b8">
   <rect x="43.957815" y="176.873443" width="214.434164" height="130.518033"/>
  </clipPath>
  <clipPath id="pfac97c9466">
   <rect x="296.686122" y="176.873443" width="214.434164" height="130.518033"/>
  </clipPath>
  <clipPath id="pd1f7c1631f">
   <rect x="340.097609" y="175.898047" width="76.535433" height="85.03937"/>
  </clipPath>
 </defs>
</svg>
